<svg xmlns="http://www.w3.org/2000/svg" width="160" height="94.702" viewBox="0 0 160 94.702">
  <title>TechBrain logo</title>
  <defs>
    <filter id="shadow" filterRes="640 380">
      <feOffset in="SourceAlpha" dy="1" />
      <feGaussianBlur stdDeviation="5" />
      <feBlend in="SourceGraphic" mode="normal" />
    </filter>
  </defs>
  <g fill="#fff" filter="url(#shadow)" transform="translate(10,10)">
    <path d="M68.846 60.489h4.625c2.146 0 3.696.281 4.651.844s1.433 1.452 1.433 2.666c0 .818-.234 1.5-.703 2.043-.468.544-1.144.886-2.024 1.026v.096c1.094.186 1.898.552 2.414 1.099.515.547.772 1.286.772 2.22 0 1.26-.488 2.246-1.465 2.959-.978.713-2.336 1.069-4.076 1.069h-5.627V60.489zm2.547 5.793h2.451c1.065 0 1.844-.152 2.333-.456.491-.303.735-.819.735-1.549 0-.658-.265-1.135-.793-1.429-.529-.294-1.37-.441-2.521-.441h-2.206v3.875zm0 1.861v4.44h2.706c1.066 0 1.871-.184 2.414-.552.544-.367.815-.947.815-1.74 0-.729-.276-1.27-.831-1.621s-1.396-.527-2.525-.527h-2.579zm16.589.767v5.601h-2.547V60.489h4.401c2.01 0 3.498.339 4.465 1.017.966.678 1.449 1.701 1.449 3.069 0 1.745-1.009 2.989-3.026 3.73l4.4 6.205h-2.898l-3.729-5.601h-2.515zm0-1.899h1.769c1.187 0 2.046-.198 2.579-.595s.799-.984.799-1.765c0-.792-.287-1.361-.863-1.707-.575-.345-1.441-.518-2.6-.518h-1.684v4.585zm23.25 7.5l-1.556-3.894h-5.957l-1.524 3.894H99.51l5.829-14.079h2.771l5.829 14.079h-2.707zm-2.227-5.869l-1.46-3.817c-.106-.256-.254-.658-.442-1.208s-.317-.953-.389-1.209a19.981 19.981 0 0 1-.842 2.58l-1.406 3.654h4.539zm9.173 5.869V60.489h2.547V74.51h-2.547zm21.822 0h-3.124l-7.661-11.173h-.086l.054.623c.1 1.189.149 2.276.149 3.261v7.289h-2.312V60.489h3.09l7.641 11.115h.063a61.635 61.635 0 0 1-.085-1.605 50.813 50.813 0 0 1-.063-2.163v-7.347H140v14.022zm-132.871 0H4.582V62.455H0v-1.966h11.711v1.966H7.129v12.056zm17.964 0H16.28V60.489h8.812v1.938h-6.266v3.816h5.872v1.919h-5.872v4.401h6.266v1.948zm12.178-12.257c-1.464 0-2.614.467-3.452 1.4-.839.934-1.258 2.222-1.258 3.865 0 1.72.403 3.021 1.21 3.903.806.882 1.973 1.323 3.5 1.323.661 0 1.301-.059 1.918-.178.618-.118 1.262-.27 1.93-.455v1.966c-1.223.416-2.607.623-4.156.623-2.28 0-4.032-.621-5.254-1.865-1.222-1.243-1.832-3.022-1.832-5.337 0-1.458.296-2.733.89-3.826a5.986 5.986 0 0 1 2.573-2.513c1.122-.582 2.44-.873 3.953-.873 1.591 0 3.062.301 4.412.901l-.917 1.908a14.637 14.637 0 0 0-1.667-.59 6.736 6.736 0 0 0-1.85-.252zm21.672 12.257h-2.558v-6.32h-7.183v6.32h-2.546V60.489h2.546v5.735h7.183v-5.735h2.558v14.022zm8.459-25.091a3.525 3.525 0 0 1-2.566-1.113l-7.629-8.09a3.525 3.525 0 0 1-.965-2.427V16.664h2.814V37.79c0 .186.07.361.197.496l7.629 8.09a.7.7 0 0 0 .794.176.698.698 0 0 0 .457-.673v-6.634a3.547 3.547 0 0 1 3.509-3.538l8.749-.07a.713.713 0 0 0 .409-.131l5.743-4.028a.728.728 0 0 0 .308-.593V15.376a.735.735 0 0 0-.155-.447l-7.87-10.07a.723.723 0 0 0-.57-.277h-5.184V1.767h5.184c1.096 0 2.111.495 2.787 1.358l7.872 10.072a3.56 3.56 0 0 1 .751 2.179v15.508a3.538 3.538 0 0 1-1.507 2.896l-5.742 4.028a3.515 3.515 0 0 1-2.003.642l-8.748.07a.727.727 0 0 0-.719.724v6.634a3.52 3.52 0 0 1-2.231 3.288 3.54 3.54 0 0 1-1.314.254"/>
    <path d="M54.476 16.823a3.175 3.175 0 0 1 6.349 0 3.175 3.175 0 0 1-6.349 0M73.23 0a3.175 3.175 0 1 0 .001 6.35A3.175 3.175 0 0 0 73.23 0"/>
    <path d="M50.838 33.18h-6.381a3.528 3.528 0 0 1-2.424-.96l-5.65-5.313a3.552 3.552 0 0 1-1.114-2.578v-7.392c0-.766.254-1.523.716-2.134l5.873-7.768a3.556 3.556 0 0 1 2.821-1.404h8.441c.193 0 .383-.08.518-.218l2.524-2.581a3.555 3.555 0 0 1 2.529-1.065h4.377v2.814h-4.377a.729.729 0 0 0-.518.218l-2.524 2.582a3.558 3.558 0 0 1-2.529 1.064h-8.441a.729.729 0 0 0-.577.287L38.229 16.5a.731.731 0 0 0-.146.437v7.392c0 .199.083.391.229.527l5.65 5.313a.723.723 0 0 0 .496.197h6.381v2.814z"/>
    <path d="M50.679 28.599a3.174 3.174 0 1 1 0 6.348 3.174 3.174 0 0 1 0-6.348m12.23-22.25a3.174 3.174 0 1 0 .002-6.348 3.174 3.174 0 0 0-.002 6.348"/>
  </g>
</svg>
