<svg xmlns="http://www.w3.org/2000/svg" width="201.146" height="44.863" viewBox="0 0 201.146 44.8633">
    <path fill="#fff" d="M49.476 37.87c-7.073 0-12.827-5.753-12.827-12.826v-8.552c0-7.073-5.754-12.826-12.827-12.826-7.072 0-12.827 5.753-12.827 12.826v1.74l-1.374.354a7.932 7.932 0 0 0-5.956 7.68c0 4.378 3.562 7.94 7.94 7.94h20.92a1.833 1.833 0 0 1 0 3.664H11.608C5.207 37.87 0 32.664 0 26.266c0-4.813 2.965-9.072 7.36-10.793C7.89 6.853 15.073 0 23.823 0c9.094 0 16.492 7.398 16.492 16.492v8.552c0 5.052 4.11 9.161 9.162 9.161s9.161-4.11 9.161-9.161-4.11-9.163-9.161-9.163c-1.01 0-2.002.164-2.948.484a1.833 1.833 0 0 1-1.177-3.471 12.836 12.836 0 0 1 4.125-.677c7.073 0 12.827 5.754 12.827 12.827S56.549 37.87 49.476 37.87zm40.845-8.262c0 1.618-.133 2.393-.367 3.167a7.764 7.764 0 0 1-7.445 5.425c-4.312 0-7.78-3.34-7.78-7.648V14.185a1.45 1.45 0 0 1 1.482-1.481h.538c.841 0 1.517.637 1.517 1.48v6.262c0 .24.101.338.302.338.07 0 .135-.035.234-.068.676-.402 2.09-1.18 3.707-1.18a7.761 7.761 0 0 1 7.445 5.423c.234.774.367 1.55.367 3.167v1.482zm-3.57-1.314c0-1.314-.032-1.817-.201-2.46-.505-1.75-2.12-3.098-4.041-3.098-1.311 0-2.425.572-3.602 1.348-.44.234-.64.61-.64 1.043v5.661c0 2.291 1.919 4.209 4.242 4.209 1.92 0 3.536-1.347 4.04-3.102.17-.635.202-1.143.202-2.453v-1.148zm11.112-13.875a2.2 2.2 0 0 1-2.224 2.224h-.269a2.199 2.199 0 0 1-2.222-2.224v-.27a2.2 2.2 0 0 1 2.222-2.222h.27a2.2 2.2 0 0 1 2.223 2.221v.27zm-.605 21.825c0 .842-.642 1.513-1.484 1.513h-.538a1.507 1.507 0 0 1-1.518-1.513V21.491c0-.842.673-1.513 1.518-1.513h.538c.842 0 1.484.67 1.484 1.513v14.753zm17.59-3.469c-.235-.774-.37-1.55-.37-3.167v-1.482c0-1.616.135-2.393.37-3.167.978-3.13 3.908-5.422 7.444-5.422 3.538 0 6.468 2.292 7.445 5.422.234.774.369 1.55.369 3.167v1.482c0 1.618-.135 2.393-.37 3.167-.976 3.13-3.905 5.425-7.444 5.425a7.762 7.762 0 0 1-7.444-5.425zm3.403-6.941c-.167.643-.2 1.147-.2 2.46v1.148c0 1.31.034 1.818.2 2.453.505 1.755 2.123 3.102 4.041 3.102 1.921 0 3.539-1.347 4.043-3.102.17-.635.2-1.143.2-2.453v-1.148c0-1.314-.03-1.817-.2-2.46-.504-1.75-2.122-3.098-4.042-3.098-1.919 0-3.537 1.348-4.043 3.098zm14.455 6.941c-.236-.774-.37-1.55-.37-3.167v-1.482c0-1.616.134-2.393.37-3.167.977-3.13 3.908-5.422 7.443-5.422 1.753 0 2.897.672 3.672 1.112l.943.573c.1.031.166.066.236.066.169 0 .27-.066.302-.236.137-.639.643-1.074 1.316-1.074.772 0 1.312.57 1.312 1.343v17.314c0 3.472-2.797 6.228-6.265 6.228h-2.695a1.506 1.506 0 0 1-1.513-1.512v-.17c0-.844.672-1.514 1.513-1.514h2.695c1.515 0 2.728-1.18 2.728-2.696v-1.684c0-.237-.1-.338-.302-.338-.069 0-.133.036-.237.07-.539.37-2.122 1.181-3.705 1.181a7.761 7.761 0 0 1-7.443-5.425zm3.402-6.941c-.169.643-.201 1.147-.201 2.46v1.148c0 1.31.032 1.818.2 2.453.507 1.755 2.124 3.102 4.042 3.102.942 0 1.652-.302 2.595-.81l1.145-.64c.504-.302.504-.468.504-.842v-7.677c0-.37 0-.54-.504-.842-.91-.54-2.459-1.45-3.74-1.45-1.918 0-3.535 1.348-4.041 3.098zm18.935-.806v11.216c0 .842-.64 1.513-1.483 1.513h-.54a1.507 1.507 0 0 1-1.515-1.513V21.321c0-.773.54-1.343 1.314-1.343.674 0 1.178.435 1.314 1.074.036.17.134.236.304.236.066 0 .134-.035.235-.066l.94-.573c.776-.44 1.923-1.112 3.673-1.112a1.51 1.51 0 0 1 1.518 1.515v.17a1.51 1.51 0 0 1-1.518 1.514c-1.278 0-2.827.91-3.738 1.45-.504.302-.504.471-.504.842zm20.976 11.382c0 .777-.54 1.347-1.313 1.347s-1.347-.57-1.347-1.348c0-.232-.102-.332-.269-.332-.104 0-.136 0-.507.236-1.011.737-2.526 1.887-4.782 1.887h-.304c-3.098 0-5.69-2.395-5.69-5.561v-.202c0-3.165 2.592-5.558 5.69-5.558h4.313c.37 0 .675-.302.675-.67v-.777c0-1.516-1.215-2.696-2.73-2.696h-.406c-1.447 0-3.063 1.214-4.309 1.921-.236.168-.505.237-.81.237-.54 0-.976-.237-1.28-.707l-.2-.335c-.17-.239-.238-.504-.238-.812 0-.501.203-1.007.71-1.28 2.019-1.212 3.703-2.223 6.127-2.223h.405c3.47 0 6.265 2.664 6.265 6.165V36.41zm-3.534-5.858a.676.676 0 0 0-.675-.674h-4.313c-1.178 0-2.123.977-2.123 2.19v.739c0 1.215.945 2.19 2.123 2.19h.742c1.177 0 2.29-.643 3.266-1.18l.472-.27c.508-.302.508-.468.508-.842v-2.153zm28.661 5.692c0 .842-.674 1.513-1.518 1.513h-.535a1.507 1.507 0 0 1-1.517-1.513V25.432a2.661 2.661 0 0 0-2.696-2.696c-.707 0-1.483.371-2.392.945-.403.27-.47.403-.47.637.067.507.1.946.1 1.35v10.576c0 .842-.672 1.513-1.514 1.513h-.54c-.84 0-1.515-.671-1.515-1.513V25.432a2.663 2.663 0 0 0-2.695-2.696c-.64 0-1.383.272-2.223.844-.504.37-.504.47-.504.842v11.822c0 .842-.641 1.513-1.483 1.513h-.537a1.507 1.507 0 0 1-1.515-1.513V21.321c0-.773.537-1.343 1.31-1.343.507 0 .944.302 1.179.707.069.099.134.167.235.167.07 0 .17-.034.305-.136.908-.572 1.92-1.18 3.233-1.18 1.583 0 3.063.538 4.179 1.588.098.098.166.13.232.13.102 0 .17-.032.27-.101.236-.132.471-.302 1.01-.605.912-.504 1.852-1.011 3.335-1.011 3.468 0 6.266 2.761 6.266 6.232v10.475zm-96.776 0c0 .842-.642 1.513-1.483 1.513h-.539a1.507 1.507 0 0 1-1.517-1.513V14.216c0-.842.673-1.512 1.517-1.512h.54c.84 0 1.483.67 1.483 1.512v22.028zm7.114 0c0 .842-.643 1.513-1.483 1.513h-.54a1.508 1.508 0 0 1-1.518-1.513V14.216c0-.842.674-1.512 1.517-1.512h.54c.841 0 1.484.67 1.484 1.512v22.028z"/>
</svg>
