<svg xmlns="http://www.w3.org/2000/svg" width="357.7" height="78.4" viewBox="0 0 357.7 78.4">
    <path fill="#fff" d="M243.1 43.9l24.1 33.2h-26.6c-4-6.2-16.4-26.3-16.6-26.6v26.6h-20.4V0H224v39.2l14.7-20.7h26l-21.6 25.4zM63.2 77.2h20.4V0H63.2v77.2zm86.9-29.5c-.1 8.6-2.2 17.3-7.9 22.8-5.5 5.7-14.2 7.8-22.8 7.9-8.6-.1-17.3-2.2-22.8-7.9-5.7-5.5-7.8-14.2-7.9-22.8.1-8.6 2.2-17.3 7.9-22.8 5.5-5.7 14.2-7.8 22.8-7.9 8.6.1 17.3 2.2 22.8 7.9 5.7 5.5 7.9 14.1 7.9 22.8zm-21.8 0c0-3.2-.6-6.4-2.3-8.4-1.6-2.1-4.1-2.9-6.6-2.9s-5 .8-6.6 2.9c-1.6 2-2.2 5.2-2.3 8.4 0 3.2.6 6.4 2.3 8.4 1.6 2.1 4.1 2.9 6.6 2.9s5-.8 6.6-2.9c1.6-2.1 2.2-5.3 2.3-8.4zm-70.2-1.2c-.1 8.6-2.2 17.3-7.9 22.8-5.5 5.7-14.2 7.8-22.8 7.9H0V0h20.4v16.3c2.3-.3 4.6-.5 7-.5 8.6.1 17.3 2.2 22.8 7.9 5.7 5.5 7.8 14.1 7.9 22.8zm-22.2 0c0-3.2-.8-6.4-2.9-8.4-2-2.1-5.2-2.9-8.4-2.9-1.4 0-2.9.2-4.2.6v21.5c1.3.4 2.8.5 4.2.6 3.2 0 6.4-.8 8.4-2.9 2.1-2.2 2.9-5.3 2.9-8.5zM189.7 59c-3.7 0-7.4-.8-9.8-2.9-2.4-2-3.4-5.2-3.4-8.4s.9-6.4 3.4-8.4c2.4-2.1 6.1-2.9 9.8-2.9 3.2 0 6.4.6 8.7 2.1V18.9c-4.1-1.4-8.5-2-13-2-8.6.1-17.3 2.2-22.8 7.9-5.7 5.5-7.8 14.2-7.9 22.8.1 8.6 2.2 17.3 7.9 22.8 5.5 5.7 14.2 7.8 22.8 7.9 4.5 0 9-.6 13-2V56.9c-2.3 1.5-5.5 2.1-8.7 2.1zm168-20.4V19.4h-14.9V4.5h-20.4V48c.1 8.5 2.3 17 7.9 22.5 5.5 5.7 14.2 7.8 22.8 7.9 1.5 0 3.1-.1 4.6-.2V59h-.5c-4.1 0-8.1-.8-10.7-2.9-2.7-2-3.7-5.2-3.7-8.4v-9.1h14.9zm-40.5 13.2h-34.5c.3 3.3 1.8 5.8 4.5 7.6 2.7 1.8 6.3 2.6 10.9 2.6 7.1 0 13.1-1 19.1-4.9v15.3c-7.4 3.9-15.8 5.9-24.2 5.9-10 0-18.1-1.9-23.9-7.4-5.8-5.5-8.4-13.8-8.4-23.1s2-17 7.5-22.6c5.5-5.7 13.4-8.3 22.4-8.3 8.8 0 15.5 2.5 19.9 7.6 4.4 5.1 6.7 12.2 6.7 21.3v6zm-20-11.3c-.1-2.2-.7-4.3-1.8-5.8-1.3-1.7-3.4-2.4-5.4-2.4-2.1 0-4.1.7-5.4 2.4-1.1 1.4-1.7 3.5-1.8 5.8h14.4z"/>
</svg>
