<svg xmlns="http://www.w3.org/2000/svg" width="437.348" height="440.379" viewBox="0 0 437.348 440.379">
    <path fill="#fff" d="M217.889 18.03c-101.449 0-183.969 82.563-183.969 184C33.92 303.479 116.453 386 217.889 386c101.449 0 183.969-82.534 183.969-183.97 0-101.448-82.533-184-183.969-184zm0 364.844c-99.685 0-180.719-81.095-180.719-180.718 0-99.685 81.095-180.72 180.719-180.72v.001c99.685 0 180.719 81.095 180.719 180.719 0 99.623-81.034 180.718-180.719 180.718z"/>
    <path fill="#fff" d="M217.326 31.311s-3.562 4.965-3.562 10.125c0 5.159 24.343 10.27 24.343 24.344 0 14.075-22 13.25-22 23.438 0 10.183 21.312 8.315 21.312 25.469 0 4.798-1.26 8.472-2.343 10.75-5.798-1.42-11.854-2.156-18.093-2.156-5.629 0-11.1.59-16.375 1.75 3.031-4.24 9.155-11.257 9.187-15 0-4.953-14.344-9.28-14.344-21.219 0-9.785 33.844-17.55 33.844-25.125 0-7.562-22.156-11.598-22.156-22.187l10.187-10.189zM106.735 83.468c2.498.014 5.094.876 7.468 3.25 8.443 8.444-1.964 19.913 2.094 23.97 5.557 5.558 20.8-19.377 35.719-10.345 7.984 4.579 2.751 25.266 10.344 31.157 4.417 3.43 8.511 4.773 11.25 5.375a76.284 76.284 0 0 0-21.625 23.062c-2.175-.755-5.35-2.631-9.407-7.094-8.242-9.072 3.672-32.854-2.218-36.78-5.895-3.927-20.425 13.98-31.813 2.593-11.388-12.298 4.19-19.488 0-26.031-4.184-6.545-14-3.688-14-3.688s5.802-5.504 12.188-5.469zm207.906 6.75c11.022-.167 24.17 13.693 35.78 9.188-16.742 12.264-25.63-5.522-35 2.406-10.537 9.096 7.692 25.71-2 33.781-9.7 8.075-19.147-1.385-26.155 5.625-4.982 4.992-4.15 13.313-5.375 18.563A76.254 76.254 0 0 0 259.11 136s1.783-5.528 10.094-12.438c11.464-8.71 27.896.616 31.75-3.25 6.342-5.074-5.689-17.032 6.438-27.312 2.273-1.93 4.705-2.743 7.249-2.782zm13.343 87.594c10.025 0 18.017 34.906 25.78 34.906 7.768 0 16.08-17.593 26.938-17.593h.03c5.636 0 10.442 7.703 10.438 7.687 0 0-3.73-2.062-9.375-2.062-9.495 0-14.565 21.562-29.594 21.562-17.963 0-19.17-24.406-25.812-24.406-6.644 0-6.696 23.156-24.938 23.156-3.949 0-8.274-1.547-11-2.72a76.01 76.01 0 0 0 2.438-19.187c0-5.405-.582-10.663-1.656-15.75 4.382 3.217 11.31 9.187 15.029 9.187 5.089.001 9.497-14.779 21.722-14.78zm-246.437 4.031c10.693 0 15.806 24.407 21.281 24.407 5.472 0 14.054-23.157 29.093-23.157 3.51 0 7.91 1.311 10.438 2.157a76.567 76.567 0 0 0-1.282 13.937c0 7.14.97 14.044 2.813 20.594-3.395-2.904-9.142-8.219-15.938-8.219-4.192 0-15.788 13.656-25.875 13.656-10.634 0-15.411-33.75-21.812-33.75-6.403 0-12.705 16.438-21.656 16.438-4.648 0-9.188-6.531-9.188-6.531s3.064 2.031 7.719 2.031c7.828 0 12.024-21.563 24.407-21.563zm166.219.063c2.455.819 5.945 4.898-.625 9.437-8.826 5.685-15.35-.616-17.344-2.968 1.74-.316 4.143-1.1 6.75-2.063.416.273.582.74.594.781v.032c.611 1.612 1.971 2.75 3.562 2.75 2.164 0 3.938-2.072 3.938-4.625 0-.254-.029-.507-.062-.75-.042-.608.068-1.084.25-1.438 1.045-.418 2.051-.819 2.937-1.156zm-59.563.875c1.043.324 2.278.726 3.625 1.187.122.36.174.816.094 1.375-.03.202.003.309.031.407.132 2.538 1.971 4.509 4.125 4.406 1.623-.076 2.923-1.31 3.438-3l.03.031s.063-.246.25-.5c2.524.817 4.934 1.522 6.782 1.875-2.198 2.68-8.22 8.372-16.844 3.375-6.357-3.962-3.858-7.908-1.531-9.156z"/>
    <path fill="#fff" d="M216.953 128.125c-39.236 0-71.063 31.814-71.063 71.062 0 39.236 31.815 71.063 71.063 71.063 39.236 0 71.062-31.827 71.062-71.063.001-39.248-31.826-71.062-71.062-71.062zm2.594 51.625c1.703 9.419 8.754 7.868 17.438 4.125 1.744-.75 3.529-1.581 5.375-2.438.113-.053.231-.103.344-.156 6.439-2.986 13.302-6.18 19.344-6.063 3.605.07 6.934 1.323 9.688 4.469-4.557-2.43-9.517-2.41-14.656-1.281-5.941 2.665-.198 9.513-8.625 14.531-12.684 6.81-20.985-2.666-22.375-4.406-4.26.122-6.866-2.054-6.533-8.781zm3.282 29s1.933-3.405 4.218-3.657v.001c.527-.058 1.047.046 1.594.406 2.91 1.917-1.594 5.562-1.594 5.562 3.448-8.044-4.218-2.312-4.218-2.312zm-48.563-32.219a17.654 17.654 0 0 1 1.594 0c5.587.19 11.862 2.745 17.781 5.156.115.049.26.079.375.125 1.884.77 3.725 1.52 5.5 2.188 8.854 3.325 15.931 3.045 17.187-.375-.361 3.24-1.837 4.454-6.094 4.531-1.296 1.806-9.164 11.638-22.156 5.437-8.655-4.609-3.219-11.688-9.281-14.062-5.204-.887-10.175-.664-14.625 2 2.666-3.38 6.015-4.8 9.719-5zm40.406 32.844c-5.744-4.828-5.718 2.812-5.718 2.812s-3.144-3.681 1.156-5.531c.604-.26 1.134-.4 1.594-.438.146-.01.292-.01.438 0 2.372.137 2.53 3.157 2.53 3.157zm52.969 1.375c-10.246 69.473-98.051 46.126-100.25 6.688-3.515 4.046-4.375 10.28-4.375 10.28.861-20.222 9.938-13.562 9.938-13.562a8.58 8.58 0 0 0-2.782.969c12.673 11.822 72.485 26.348 95.062-6.375-3.004-2.152-5.625-2.813-5.625-2.813 1.006-.241 1.923-.393 2.781-.437.286-.015.572-.005.844 0 10.525.201 9.938 14.906 9.938 14.906-1.175-4.355-3.295-7.467-5.531-9.656z"/>
    <path fill="#fff" d="M263.548 214.593c-17.299 60.95-86.781 36.291-93.313 4.75 11.126 11.132 72.8 23.035 93.313-4.75zm16.53 26.813c1.117.742 2.688 1.998 4.845 4.156 7.804 7.804-1.138 24.933 2.562 32.655 3.697 7.724 23.323-4.331 28.313.657 4.987 4.989-8.033 23.643-2.562 31.688 5.472 8.047 24.925 6.763 24.938 6.781 0 0-18.682 11.735-30.907 1.438-10.137-8.215 1.858-21.643-2.406-25.906-4.264-4.266-34.765 13.023-39.594 2.562-5.742-10.1 7.389-18.686-8.593-31.562a76.189 76.189 0 0 0 23.404-22.469zm-125.124 1.532a76.329 76.329 0 0 0 22.281 20.905c-13.107 16.161-31.75-.403-38.531 9.282-4.022 7.042 8.441 27.373 1 34.812-9.048 9.049-38-11.883-38 16.469-12.261-33.981 26.922-16.903 28.531-21.125 3.818-6.439-13.666-26.745-3.813-44.031 6.983-11.759 20.177-.174 28.532-16.312zm80.062 29.968v.031c-2.018 3.514-5.125 9.613-5.125 13.844 0 6.244 6.407 7.662 6.407 18.5 0 17.636-27.375 15.433-27.375 27.375 0 11.935 24.968 23.322 6.968 36.188 9.917-19.666-21.125-25.355-21.125-36.562 0-11.21 20.038-15.43 18.75-25.531-1.28-10.111-12.672-9.548-13.406-22.594 0-4.105.846-8.083 1.531-10.625a76.11 76.11 0 0 0 15.344 1.562 75.926 75.926 0 0 0 18.031-2.188zM60.953 396.875c.963 0 1.858.029 2.657.094.797.064 1.583.17 2.343.312.305.066.592.116.907.188.317.071.64.154.968.25l.219.281c-.072.207-.14.38-.187.562-.049.183-.108.376-.157.562-.072.364-.151.724-.187 1.094-.036.372-.07.745-.094 1.125l-1.625-.031c0-.174.012-.342 0-.5a2.515 2.515 0 0 1-.031-.406 4.503 4.503 0 0 0-.094-.75.934.934 0 0 0-.156-.312c-.23-.267-.708-.498-1.469-.719-.76-.222-1.582-.359-2.469-.438a8.81 8.81 0 0 0-.562-.029c-.192-.009-.354-.032-.531-.032-1.646 0-2.962.254-3.938.75-.973.497-1.469 1.18-1.469 2.031 0 1.054.634 1.713 1.875 2 1.241.285 2.655.497 4.25.656.177.016.342.049.532.062.19.016.385.016.562.031 1.798.177 3.439.521 4.938 1.032 1.5.51 2.25 1.606 2.25 3.279 0 1.708-1.012 3.09-3.063 4.126-2.049 1.039-4.765 1.562-8.156 1.562a33.226 33.226 0 0 1-2.75-.125 27.83 27.83 0 0 1-2.469-.312c-.48-.096-.952-.192-1.406-.312-.457-.118-.963-.278-1.469-.438.05-.143.107-.271.156-.405.051-.137.105-.263.157-.407.099-.38.18-.82.218-1.281s.069-1.095.094-1.875h1.625c.026.877.073 1.447.125 1.719a.975.975 0 0 0 .469.687l.094.062c.707.447 1.57.808 2.593 1.062 1.025.255 2.12.375 3.282.375 1.72 0 3.105-.298 4.156-.875 1.048-.572 1.562-1.293 1.562-2.218 0-1.103-.623-1.835-1.875-2.157-1.246-.317-2.658-.56-4.25-.718-.177-.017-.35-.017-.5-.032l-.469-.063c-1.795-.189-3.426-.55-4.906-1.062-1.48-.51-2.219-1.575-2.219-3.219 0-1.947 1.068-3.304 3.219-4.062 2.153-.759 4.567-1.124 7.25-1.124zm20.719.156c1.974.08 3.932.134 5.906.155 1.975.027 3.963.032 5.938.032s3.962-.005 5.937-.032c1.974-.022 3.932-.062 5.907-.125l.218.063c-.036.336-.07.681-.093 1-.025.319-.039.617-.063.937-.024.335-.031.683-.031 1V401h-1.594c0-.079-.019-.186-.031-.281a4.202 4.202 0 0 0-.063-.312c0-.096-.018-.187-.03-.281-.013-.093-.007-.188-.032-.281-.025-.476-.088-.771-.187-.907-.104-.134-.314-.232-.594-.25-.532-.029-1.043-.045-1.563-.062-.52-.016-1.062-.016-1.593-.031a50.928 50.928 0 0 0-1.563-.031h-1.594c-.133.017-.225.061-.25.156-.024.097-.038.232-.062.375v12.093c0 .53.196.866.562 1 .368.138 1.289.235 2.782.282v.969c-.457-.016-.865-.015-1.22-.031-.356-.015-.707-.03-1.062-.03-.48-.018-.993-.032-1.562-.032H91.36c-.57 0-1.114.015-1.594.031-.355 0-.707.016-1.062.031-.354.017-.734.016-1.188.03v-1c1.493-.029 2.414-.112 2.781-.25.366-.135.532-.458.532-.968v-11.94l-.032-.531v-.031c-.024-.06-.037-.109-.062-.125-.026-.016-.093-.015-.219-.031l-1.158-.032a.954.954 0 0 1-.219.029h-.218a87.52 87.52 0 0 0-3.375.063c-1.037.04-1.619.094-1.72.157-.126.047-.235.225-.312.562-.076.333-.136.695-.187 1.094 0 .095.013.188 0 .281-.012.097-.031.186-.031.281H81.67v-.938c0-.319-.006-.666-.031-1-.026-.319-.05-.618-.063-.938a8.28 8.28 0 0 0-.094-.968l.19-.122zm72.094 0c.505.029.95.055 1.344.062.393.008.77.015 1.125.03.428.018.873.032 1.343.032h1.72c.732 0 1.473.007 2.218 0 .748-.008 1.49-.047 2.25-.062.733-.015 1.473-.023 2.219-.032.747-.007 1.516 0 2.25 0 1.872 0 3.562.21 5.093.625 1.54.415 2.313 1.362 2.313 2.845 0 1.115-.586 2.022-1.75 2.719-1.157.688-2.493 1.244-4 1.625l3.906 3.687 1.719 1.625c.077.08.123.146.187.221.063.071.143.153.22.218 0 .016.005.016.03.031.026.017.063.046.063.062.455.43.92.822 1.437 1.188.52.369 1.24.562 2.125.562v.968c-.303-.017-.615-.023-.906-.029-.292-.011-.572-.017-.875-.032-.306 0-.616.007-.906 0-.292-.007-.572-.031-.875-.031-.305 0-.633.024-.938.031-.302.007-.597 0-.875 0-.304.016-.603.021-.906.031-.304.007-.602.014-.906.03-.506-.523-1.02-1.06-1.563-1.593s-1.099-1.035-1.656-1.562a1.747 1.747 0 0 0-.187-.188c-.062-.056-.106-.124-.157-.188a24.3 24.3 0 0 1-.375-.345 14.742 14.742 0 0 0-.375-.343l-3.5-3.407-.814-.719c.026-.017.07-.038.094-.062.025-.024.037-.064.063-.095 0-.017.019-.036.03-.062a.173.173 0 0 1 .063-.063c0-.03-.01-.048 0-.062.015-.017.031-.033.031-.063.102 0 .211-.01.313 0 .101.008.186.031.312.031.102.015.211.024.313.032.1.007.211 0 .312 0 1.317 0 2.462-.324 3.438-1 .972-.678 1.469-1.467 1.469-2.375 0-.972-.448-1.715-1.344-2.22-.899-.5-2.216-.75-3.938-.75h-.406c-.227 0-.484-.016-.75 0-.266.018-.637.062-1.094.095 0 .03.014.062 0 .093-.012.032-.038.062-.062.094-.025.11-.068.21-.094.312a1.727 1.727 0 0 0-.031.344v11.844c0 .524.195.865.563 1 .366.135 1.286.234 2.78.281v.969c-.455-.017-.864-.014-1.218-.03a22.146 22.146 0 0 0-1.062-.031c-.48-.016-.993-.032-1.563-.032h-4.375c-.57 0-1.083.016-1.562.032-.354 0-.708.015-1.063.03-.354.018-.764.015-1.219.031v-1c1.493-.03 2.414-.114 2.782-.25.367-.135.562-.458.562-.969v-11.937c0-.493-.195-.804-.562-.938-.368-.134-1.289-.232-2.782-.281l.002-1.029zm71.75 0c.506.029.952.055 1.344.062.394.008.772.015 1.125.03.431.018.875.032 1.344.032h1.72c.731 0 1.47.007 2.218 0 .745-.008 1.49-.047 2.25-.062.734-.015 1.502-.023 2.25-.032.748-.007 1.484 0 2.219 0 1.873 0 3.562.21 5.094.625 1.537.415 2.312 1.362 2.312 2.845 0 1.115-.586 2.022-1.75 2.719-1.158.688-2.494 1.244-4 1.625l3.906 3.687 1.719 1.625c.076.08.157.146.219.221.064.071.113.153.188.218 0 .016.008.016.031.031.025.017.062.046.062.062.457.43.92.822 1.438 1.188.52.369 1.236.562 2.125.562v.968c-.305-.017-.616-.023-.906-.029-.291-.011-.57-.017-.875-.032-.303 0-.615.007-.906 0-.293-.007-.57-.031-.875-.031-.303 0-.632.024-.938.031-.303.007-.564 0-.844 0-.301.016-.635.021-.938.031a30.23 30.23 0 0 0-.906.03c-.505-.523-1.02-1.06-1.562-1.593-.544-.533-1.1-1.035-1.656-1.562a1.669 1.669 0 0 0-.188-.188c-.062-.056-.104-.124-.156-.188a16.61 16.61 0 0 1-.375-.345c-.128-.119-.248-.231-.375-.343l-3.5-3.407-.814-.719c.025-.017.07-.038.094-.062.027-.024.037-.064.063-.095 0-.017.019-.036.03-.062a.178.178 0 0 1 .062-.063c0-.03-.013-.048 0-.062.012-.017.031-.033.031-.063.1 0 .211-.01.312 0 .102.008.217.031.345.031.101.015.18.024.28.032.102.007.211 0 .312 0 1.316 0 2.463-.324 3.438-1 .976-.678 1.47-1.467 1.47-2.375 0-.972-.445-1.715-1.345-2.22-.896-.5-2.217-.75-3.938-.75h-.406c-.227 0-.484-.016-.75 0-.266.018-.64.062-1.094.095 0 .03.014.062 0 .093a.461.461 0 0 1-.062.094c-.024.11-.067.21-.094.312a1.59 1.59 0 0 0-.031.344v11.844c0 .524.195.865.563 1 .367.135 1.288.234 2.78.281v.969c-.453-.017-.862-.014-1.219-.03a22.108 22.108 0 0 0-1.062-.031 45.641 45.641 0 0 0-1.563-.032h-4.375c-.569 0-1.08.016-1.562.032-.354 0-.708.015-1.063.03-.353.018-.762.015-1.219.031v-1c1.493-.03 2.414-.114 2.782-.25.367-.135.562-.458.562-.969v-11.937c0-.493-.194-.804-.562-.938-.368-.134-1.289-.232-2.782-.281l.003-1.029zm36.906 0c.33.029.621.057.875.062.253.008.496.03.75.03.303.017.639 0 .969 0h1.219c.277.017.603.032.969.032h3.906c.887 0 1.771-.016 2.656-.031.885 0 1.771.008 2.656 0 .887-.008 1.801 0 2.688 0h1.719c.279.017.583.024.875.031.291.007.572.016.875.03l.156.125c-.051.131-.1.232-.125.345-.025.113-.037.233-.062.344a5.668 5.668 0 0 0-.219.906 11.07 11.07 0 0 0-.125 1.155 2.838 2.838 0 0 0-.062.313c-.011.112 0 .232 0 .344l-1.5-.032c0-.077.01-.16 0-.25-.012-.087-.031-.169-.031-.25 0-.175-.018-.355-.031-.529-.012-.178-.006-.356-.03-.532a.517.517 0 0 0-.157-.281c-.062-.056-.172-.093-.375-.125-.505-.08-1.183-.14-2.031-.188a56.755 56.755 0 0 0-3.031-.062h-1.375c-.303.018-.614.024-.969.03-.354.008-.812.016-1.344.032 0 .064.012.123 0 .188-.015.062-.031.124-.031.188-.023.082-.047.155-.062.219-.01.066 0 .126 0 .187v3.157c0 .213-.036.417-.062.625 0 .224.014.448 0 .656-.012.206-.03.433-.03.656.403.015.735.023 1 .03.265.008.522.017.75.031h.75c1.292 0 2.34-.015 3.125-.062.784-.048 1.249-.124 1.375-.188a.739.739 0 0 0 .28-.375c.063-.168.1-.446.125-.875v-.093c0-.033.009-.078.031-.125v-.282l1.594-.03c0 .159.014.296 0 .438s-.03.295-.03.438c-.026.282-.05.559-.063.844-.012.284 0 .59 0 .875 0 .205-.012.403 0 .625.014.222.031.45.031.656 0 .081.02.147.031.219.014.072 0 .14 0 .219 0 .146.018.295.031.438.014.145 0 .294 0 .438l-1.594-.031v-.25a.3.3 0 0 1-.031-.125v-.094c-.051-.588-.137-.964-.25-1.125-.114-.157-.332-.264-.688-.281-.38-.032-.874-.039-1.469-.062a46.899 46.899 0 0 0-1.875-.031h-1.375a17.69 17.69 0 0 1-.75.031c-.264.007-.596.014-1 .031.025.462.05.907.062 1.344.012.437.031.897.031 1.344v2.812c0 .143.005.303.031.438.025.135.039.248.062.375.33 0 .67.024 1 .031.33.008.639 0 .969 0 .304.016.641.031.969.031h.97c.304 0 .623.007.937 0 .317-.008.635-.031.938-.031.625-.013 1.25-.033 1.875-.062a47.117 47.117 0 0 0 1.719-.125c.076-.143.137-.276.188-.407.051-.125.105-.262.156-.405.102-.271.211-.542.312-.812.1-.271.176-.544.25-.812l1.562-.031c-.102.462-.186.868-.25 1.187-.063.32-.1.621-.125.907-.051.271-.079.55-.094.843-.012.296-.037.634-.062 1.032-.38.016-.701.046-.969.062-.266.016-.532 0-.812 0a8 8 0 0 1-.656.031h-.781c-.913 0-1.807.006-2.719 0-.912-.009-1.832-.016-2.719-.03-.91-.018-1.808-.024-2.719-.032-.912-.007-1.838-.031-2.75-.031h-1.094c-.367 0-.745.015-1.125.03-.379 0-.76.016-1.125.032-.368.016-.746.014-1.125.031v-.531c.229-.063.429-.13.594-.188.164-.056.311-.106.438-.157.33-.141.539-.316.625-.5.09-.183.125-.463.125-.843V399.28c0-.493-.164-.803-.531-.938-.365-.136-1.319-.234-2.812-.282v-1.029zm32.719 0c.33.029.62.057.875.062.252.008.5.03.75.03.305.017.609 0 .938 0h1.22c.276.017.603.032.968.032h3.938c.886 0 1.77-.016 2.657-.031.884 0 1.768.008 2.655 0 .885-.008 1.771 0 2.656 0h1.75c.278.017.553.024.844.031.292.007.601.016.906.03l.156.125c-.052.131-.1.232-.125.345-.026.113-.038.233-.062.344a5.543 5.543 0 0 0-.25.906c-.05.312-.068.708-.094 1.155-.023.098-.05.202-.062.313-.013.112-.032.232-.032.344l-1.468-.032c0-.077-.021-.16-.031-.25-.014-.087 0-.169 0-.25 0-.175-.019-.355-.032-.529-.01-.178-.037-.356-.062-.532-.026-.126-.062-.227-.125-.281-.065-.056-.203-.093-.406-.125-.507-.08-1.186-.14-2.032-.188-.999-.048-2-.068-3-.062h-1.375c-.304.018-.646.024-1 .03-.354.008-.779.016-1.312.032 0 .064-.018.123-.03.188-.013.062 0 .124 0 .188-.025.082-.05.155-.063.219-.013.066-.031.126-.031.187v3.157c0 .213-.004.417-.03.625 0 .224-.021.448-.031.656-.015.206 0 .433 0 .656.404.015.733.023 1 .03.265.008.521.017.75.031h.75c1.29 0 2.34-.015 3.125-.062.784-.048 1.219-.124 1.343-.188a.713.713 0 0 0 .282-.375c.062-.168.132-.446.156-.875v-.093c0-.033.006-.078.031-.125v-.282l1.594-.03c0 .159-.021.296-.031.438-.014.142 0 .295 0 .438-.026.282-.052.559-.062.844-.014.284-.031.59-.031.875 0 .205.018.403.031.625.01.222 0 .45 0 .656 0 .081.017.147.03.219.013.072.031.14.031.219 0 .146-.013.295 0 .438.013.145.032.294.032.438l-1.594-.031v-.25a.258.258 0 0 1-.032-.125v-.094c-.05-.588-.136-.964-.25-1.125-.113-.157-.364-.264-.718-.281-.38-.032-.844-.039-1.438-.062a48.46 48.46 0 0 0-1.906-.03h-1.344c-.229.015-.484.023-.75.03s-.595.015-1 .032c.027.461.051.906.062 1.343.015.438 0 .897 0 1.344v2.812c0 .143.007.303.031.438.025.135.069.248.094.375.33 0 .641.024.969.031.329.008.672 0 1 0 .304.016.609.031.938.031h1c.305 0 .622.007.938 0 .316-.008.603-.03.907-.03a75.576 75.576 0 0 0 1.905-.063c.618-.033 1.188-.08 1.72-.125.075-.143.134-.276.187-.406.048-.125.106-.263.156-.406l.282-.812c.101-.271.205-.543.279-.812l1.563-.031c-.101.463-.188.869-.25 1.188-.06.3-.102.603-.125.906a5.45 5.45 0 0 0-.093.844c-.015.295-.037.633-.063 1.03-.38.017-.702.048-.969.063-.265.016-.533 0-.812 0-.229.02-.458.029-.688.03h-.75c-.91 0-1.839.007-2.75 0-.912-.008-1.8-.015-2.688-.029-.91-.017-1.838-.023-2.75-.032-.91-.007-1.808-.031-2.719-.031h-1.125c-.365 0-.747.015-1.125.031-.38 0-.758.015-1.125.031s-.714.015-1.094.03v-.529c.23-.064.398-.132.562-.188.164-.056.312-.106.438-.157.329-.14.537-.316.625-.5.091-.183.156-.463.156-.843V399.28c0-.493-.195-.803-.562-.938-.367-.136-1.287-.233-2.781-.282v-1.029zm36.219 0c.354.031.688.047 1.029.062.343.018.708.045 1.063.062.329.017.645.048 1 .062.355.018.703.016 1.032.03l3.029-.062 12.313-.029h1.094v.812c-1.461 1.292-2.932 2.545-4.406 3.812-1.462 1.269-2.905 2.569-4.344 3.844l-3.094 2.781-3.188 2.938-.688.625 1.062.03 4.656.032c.126.016.25.03.375.03h.406c.128.018.25.032.375.032h.407c2.732 0 4.417-.06 5.062-.188.646-.128 1.086-.487 1.313-1.094v-.03c.05-.129.086-.256.125-.376.036-.12.072-.231.125-.344.05-.128.086-.256.125-.375.036-.118.104-.232.155-.344l1.562-.031c-.024.145-.088.305-.125.47-.036.168-.07.338-.093.53-.05.237-.077.504-.125.781-.05.279-.102.559-.125.844-.05.271-.102.556-.125.812-.027.255-.037.495-.063.719-.229.015-.428.023-.594.03-.163.008-.316 0-.468 0h-1.25c-1.166 0-2.352-.014-3.532-.03-1.174-.016-2.334-.015-3.5-.032-1.163-.015-2.322-.046-3.5-.062-1.177-.017-2.367 0-3.53 0-.508 0-1.008-.007-1.5 0-.495.008-.996 0-1.5 0-.51.016-1.007.021-1.5.031-.495.007-.995.046-1.5.062v-.965c2.785-2.232 5.479-4.509 8.062-6.844s5.154-4.67 7.687-7.031h-1.312c-.445 0-.884-.014-1.313-.031h-2.625c-1.84 0-3.28.033-4.344.093-1.062.061-1.653.123-1.78.221-.102.06-.208.22-.282.437-.076.23-.144.458-.219.688a5.932 5.932 0 0 1-.093.53l-.094.407h-1.531c0-.24.019-.504.03-.75.014-.248.04-.493.062-.75.026-.237.021-.471.031-.72.015-.247.032-.493.032-.75a.781.781 0 0 0-.032-.25c-.025-.063-.05-.122-.062-.218a7.99 7.99 0 0 0-.062-.344l.287-.157zm32.812 0c.331.029.653.057.906.062.252.008.497.03.75.03.305.017.607 0 .938 0h1.22c.275.017.602.032.968.032h3.938c.886 0 1.771-.016 2.656-.031.884 0 1.771.008 2.656 0s1.77 0 2.657 0h1.75c.278.017.552.024.843.031.293.007.604.016.907.03l.125.125c-.051.131-.07.232-.095.345-.024.113-.067.233-.094.344-.098.296-.17.599-.218.906-.051.312-.101.708-.125 1.155-.025.098-.019.202-.032.313-.01.112-.03.232-.03.344l-1.47-.032c0-.077-.02-.16-.03-.25-.014-.087-.031-.169-.031-.25 0-.175.013-.355 0-.529a6.325 6.325 0 0 0-.063-.532c-.023-.126-.062-.227-.125-.281-.063-.056-.203-.093-.406-.125-.505-.08-1.185-.14-2.03-.188a56.755 56.755 0 0 0-3.031-.062h-1.344c-.305.018-.647.024-1 .03-.355.008-.78.016-1.313.032 0 .064-.02.123-.03.188-.014.062-.031.124-.031.188-.024.082-.019.155-.031.219-.012.066-.031.126-.031.187v3.157c0 .213-.005.417-.032.625 0 .224-.018.448-.029.656-.014.206 0 .433 0 .656.403.015.731.023 1 .03.265.008.489.017.718.031h.781c1.292 0 2.308-.015 3.094-.062.783-.048 1.247-.124 1.375-.188a.74.74 0 0 0 .281-.375c.062-.168.101-.446.125-.875v-.093c0-.033.039-.078.062-.125v-.282l1.594-.03c0 .159-.02.296-.031.438-.015.142-.03.295-.03.438-.025.282-.021.559-.032.844-.012.284-.031.59-.031.875 0 .205.02.403.03.625.012.222 0 .45 0 .656 0 .081.02.147.032.219.013.072 0 .14 0 .219 0 .146.017.295.031.438.012.145.031.294.031.438l-1.594-.031v-.25c-.023-.046-.062-.093-.062-.125v-.094c-.051-.588-.105-.964-.219-1.125-.113-.157-.363-.264-.72-.281-.38-.032-.874-.039-1.468-.062a46.899 46.899 0 0 0-1.875-.031h-1.375a16.22 16.22 0 0 1-.719.031c-.268.007-.596.014-1 .031.025.462.017.907.03 1.344s.032.897.032 1.344v2.812c0 .143.005.303.03.438.024.135.072.248.095.375.33 0 .641.024.968.031.329.008.675 0 1 0 .306.016.61.031.938.031h1c.304 0 .622.007.937 0 .315-.008.603-.031.907-.031.63-.015 1.257-.032 1.875-.062a56.18 56.18 0 0 0 1.75-.125c.077-.143.136-.276.188-.407.05-.125.105-.262.155-.405.101-.271.181-.542.282-.812.102-.271.206-.544.28-.812l1.562-.031c-.102.462-.187.868-.25 1.187-.064.32-.132.621-.155.907a5.97 5.97 0 0 0-.095.843c-.013.296-.006.634-.029 1.032-.38.016-.704.046-.971.062s-.564 0-.843 0c-.219.02-.438.029-.657.031h-.779c-.91 0-1.81.006-2.721 0-.911-.009-1.803-.016-2.687-.03-.91-.018-1.84-.024-2.75-.032-.912-.007-1.806-.031-2.719-.031h-1.125c-.366 0-.747.015-1.125.03-.38 0-.759.016-1.125.032s-.743.014-1.125.031v-.531c.229-.063.43-.13.594-.188.165-.056.31-.106.437-.157.33-.141.536-.316.625-.5.091-.183.125-.463.125-.843V399.28c0-.493-.166-.803-.529-.938-.37-.136-1.319-.234-2.813-.282l-.003-1.029zm-223.906 15.344c-.354-.039-.598-.092-.75-.157-.152-.079-.42-.319-.75-.75-.33-.43-.768-1.12-1.375-2.03l-8.406-12.5h-2.688l-6.595 10.156c-.506.78-.998 1.538-1.531 2.312a47.434 47.434 0 0 1-1.687 2.282.424.424 0 0 1-.094.125.59.59 0 0 0-.094.093 1.58 1.58 0 0 1-.812.438c-.318.063-.878.094-1.688.094v1c.76-.031 1.395-.056 1.875-.062.482-.008.913-.016 1.344-.031h2.125c.429.016.895.023 1.375.031.635.014 1.271.034 1.906.062v-.969c-1.164-.031-1.939-.076-2.344-.156-.405-.078-.625-.23-.625-.438 0-.241.076-.511.188-.781.114-.271.221-.543.374-.812.075-.128.174-.256.25-.375.076-.119.144-.215.22-.344.126-.19.248-.403.375-.594.125-.191.244-.355.343-.531l1-.03h7.469l1.125.03c.141.204.276.413.406.625.165.265.36.54.563.844.025.033.037.078.062.125.026.05.07.095.094.125.253.384.449.75.626 1.094.177.342.28.574.28.719 0 .173-.135.281-.375.343-.242.065-.752.11-1.562.125h-.967v1c.481-.016.913-.023 1.28-.03.366-.008.733-.016 1.063-.031.478 0 .991.01 1.531 0 .545-.007 1.227-.031 2.063-.031.834 0 1.531.024 2.062.031.533.008 1.013 0 1.469 0 .354.016.726.023 1.094.032.366.006.769.014 1.25.029v-.968a16.91 16.91 0 0 1-1.469-.095zm-11.345-5.25c-.292.01-.559 0-.812 0h-4.469c-.229-.015-.466-.032-.719-.032s-.545.017-.875 0l3.907-6.031 3.968 6.031c-.38.016-.71.025-1 .032zm83.501.531c-.097-.461-.317-.892-.657-1.313a3.873 3.873 0 0 0-1.28-1.03 7.73 7.73 0 0 0-2-.656c-.76-.144-1.973-.265-3.594-.375v-.062c2.278-.302 3.994-.775 5.094-1.438 1.101-.66 1.656-1.524 1.656-2.594 0-1.016-.66-1.812-1.938-2.344-1.279-.533-3.137-.812-5.593-.812-.684 0-1.367.017-2.063.031a79.63 79.63 0 0 1-2.062.031c-.709.018-1.428.015-2.125.031-.697.017-1.38.031-2.063.031h-1.281c-.369 0-.74-.015-1.094-.031-.405 0-.819.014-1.25 0-.43-.016-.925-.064-1.531-.094v1.03c1.493.048 2.414.147 2.782.281.366.135.53.444.53.938v11.938c0 .381-.038.66-.125.844-.09.184-.297.357-.625.5a7.94 7.94 0 0 1-.437.156c-.164.057-.366.124-.594.188v.529c.381-.016.764-.014 1.156-.03a28.61 28.61 0 0 1 1.219-.031c.405-.016.795-.031 1.188-.031h1.156c.38 0 .759.024 1.125.032.368.007.745.015 1.125.03.354 0 .694-.009 1.062 0 .366.006.745 0 1.125 0 1.417 0 2.803-.065 4.157-.219a11.386 11.386 0 0 0 3.781-1.094c1.09-.511 1.906-1.09 2.437-1.75a3.467 3.467 0 0 0 .782-2.219c0-.079.012-.139 0-.219a2.148 2.148 0 0 0-.063-.248zm-13.187-4.875v-.062c0-.368.019-.734.031-1.094.013-.36.037-.725.063-1.094 0-.351-.013-.7 0-1.062.01-.369.03-.711.03-1.062.38-.032.696-.053.938-.062.239-.007.453-.046.656-.062h.5c1.544 0 2.685.22 3.407.625.722.406 1.062 1.03 1.062 1.875 0 1.114-.439 1.912-1.312 2.375-.874.462-2.331.688-4.407.688h-.313c-.151 0-.329-.029-.53-.062-.025-.235-.039-.419-.063-.562-.025-.154-.062-.315-.062-.441zm6.187 8.563c-.924.646-2.295.969-4.094.969h-.375c-.115 0-.248-.017-.375-.031-.177 0-.361-.007-.562-.031-.203-.023-.435-.094-.687-.156v-.688l.03-2.375v-3.407a.784.784 0 0 1-.03-.25v-.28c.43-.017.777-.032 1.03-.032l.625.001c1.975 0 3.457.283 4.407.844.95.557 1.406 1.414 1.406 2.594 0 1.241-.451 2.197-1.375 2.842zM50.171 415.25h334.062v1.969H50.171zm5.813 4.719c.53 0 .998.028 1.437.062.44.034.893.08 1.313.156.168.034.325.087.5.125.174.039.349.072.531.125l.125.156c-.043.11-.098.214-.125.312-.029.097-.065.179-.094.281-.04.195-.042.392-.062.594-.022.2-.05.391-.063.594h-.906c0-.095.008-.196 0-.281-.008-.085-.031-.149-.031-.219-.013-.196-.01-.334-.031-.406-.022-.072-.067-.12-.094-.156-.127-.146-.393-.256-.812-.375a6.982 6.982 0 0 0-1.344-.25c-.097-.009-.208-.027-.313-.03-.105-.006-.216 0-.312 0-.909 0-1.62.137-2.156.406-.538.268-.813.635-.813 1.093 0 .567.348.908 1.031 1.062.773.174 1.556.299 2.344.375.097.007.209.022.313.031.106.01.184-.007.28 0 .993.097 1.922.29 2.75.562.83.276 1.22.882 1.22 1.781 0 .919-.557 1.66-1.688 2.219-1.13.557-2.631.812-4.5.812-.546 0-1.032-.024-1.5-.062a14.46 14.46 0 0 1-1.375-.156c-.264-.05-.53-.12-.781-.188-.25-.063-.532-.13-.813-.219.03-.075.066-.148.094-.219.028-.073.065-.141.094-.219.054-.205.072-.44.093-.688.02-.249.047-.58.063-1v-.031h.906c.013.473.034.79.063.938a.552.552 0 0 0 .218.344c.013.008.011.017.032.031.02.012.048.023.062.031.39.242.871.426 1.438.562.564.136 1.17.219 1.812.219.95 0 1.703-.16 2.281-.47.58-.308.875-.72.875-1.218 0-.593-.339-.953-1.03-1.125a16.06 16.06 0 0 0-2.345-.406c-.097-.007-.198-.023-.28-.031-.085-.01-.168.009-.25 0a12.603 12.603 0 0 1-2.72-.594c-.815-.274-1.218-.836-1.218-1.719 0-1.05.593-1.778 1.78-2.188 1.188-.406 2.52-.621 4.001-.621zm323.156 0c.533 0 1.028.028 1.47.062.439.034.861.08 1.28.156.17.034.324.087.5.125.175.039.351.072.531.125l.125.156c-.043.11-.096.214-.125.312-.027.097-.036.179-.062.281a5.137 5.137 0 0 0-.095.594c-.021.2-.05.391-.062.594h-.907c0-.095.006-.196 0-.281-.007-.085-.03-.149-.03-.219-.017-.196-.012-.334-.031-.406-.022-.072-.065-.12-.095-.156-.124-.146-.394-.256-.812-.375a7.073 7.073 0 0 0-1.344-.25c-.099-.009-.207-.027-.312-.03-.104-.006-.215 0-.312 0-.906 0-1.619.137-2.156.406-.537.268-.813.635-.813 1.093 0 .567.349.908 1.032 1.062.685.154 1.463.288 2.343.375.098.007.208.022.313.031.104.01.183-.007.281 0 .989.097 1.92.29 2.75.562.827.276 1.25.882 1.25 1.781 0 .919-.588 1.66-1.72 2.219-1.13.557-2.627.812-4.5.812-.543 0-1.03-.024-1.5-.062a14.46 14.46 0 0 1-1.375-.156c-.264-.05-.527-.12-.78-.188-.251-.063-.503-.13-.781-.219.024-.075.037-.148.062-.219.028-.073.066-.141.095-.219.057-.205.073-.44.094-.688.022-.249.046-.58.062-1v-.031h.906c.014.473.034.79.063.938a.55.55 0 0 0 .219.344c.012.008.01.017.03.031.021.012.05.023.062.031.39.242.871.426 1.438.562a7.68 7.68 0 0 0 1.812.219c.949 0 1.7-.16 2.282-.47.578-.308.875-.72.875-1.218 0-.593-.34-.953-1.032-1.125-.69-.173-1.465-.32-2.343-.406-.097-.007-.197-.023-.282-.031-.083-.01-.167.009-.25 0a12.578 12.578 0 0 1-2.718-.594c-.82-.274-1.22-.836-1.22-1.719 0-1.05.595-1.778 1.781-2.188 1.186-.406 2.523-.621 4.001-.621zm-277.469.093c1.09.044 2.162.082 3.25.095 1.089.013 2.193.03 3.281.03 1.09 0 2.162-.018 3.25-.029 1.094-.011 2.188-.031 3.282-.063l.093.03c-.012.182-.019.36-.03.532-.013.17-.04.329-.063.5-.013.18 0 .358 0 .531v.531l-.875-.031c0-.044-.026-.074-.032-.125-.008-.053-.019-.128-.03-.188 0-.052.005-.106 0-.156a1.214 1.214 0 0 0-.032-.157c-.013-.258-.037-.425-.094-.5-.054-.071-.159-.084-.312-.093-.291-.018-.589-.053-.875-.062-.287-.007-.582-.024-.875-.031-.293-.01-.59 0-.875 0h-.875c-.084.008-.112.043-.125.094-.014.054-.05.109-.063.188v6.531c0 .283.11.46.313.531.202.073.708.13 1.531.156v.531c-.25-.01-.462-.021-.656-.031-.195-.007-.4-.031-.594-.031-.267-.01-.56 0-.875 0h-2.407c-.314 0-.61-.01-.874 0-.196 0-.367.024-.563.031-.194.01-.435.02-.687.031v-.562c.824-.02 1.33-.052 1.531-.125.202-.072.313-.257.313-.531v-6.718a.13.13 0 0 0-.063-.062.365.365 0 0 0-.125-.031h-.625c-.042.008-.083 0-.125 0h-.125c-.67 0-1.301.01-1.875.031-.571.021-.88.061-.937.094-.07.027-.116.131-.157.312-.042.18-.067.38-.093.594 0 .052-.026.104-.032.156-.006.042.001.085 0 .125h-.875v-.5c0-.173-.016-.351-.03-.53-.014-.172-.025-.33-.032-.5a4.313 4.313 0 0 0-.063-.532l.125-.066zm53.344 0c.251.02.46.054.656.063.196.008.397 0 .594 0 .263.007.562 0 .875 0h2.407c.313 0 .61.007.874 0 .196 0 .367.008.563 0 .195-.01.437-.022.687-.031v.531c-.823.035-1.33.084-1.531.156-.202.074-.313.256-.313.53v3.907c0 .821.102 1.378.282 1.688.182.31.535.547 1.093.719a7.41 7.41 0 0 0 1.125.25c.411.056.87.094 1.344.094 1.533 0 2.558-.222 3.094-.657.536-.43.812-1.07.812-1.937v-4.094c0-.265-.11-.426-.312-.5-.203-.072-.707-.13-1.531-.156v-.563c.404.026.734.059 1 .063.263.005.513-.008.75 0h1.406c.237-.008.485.005.75 0 .267-.005.594-.016 1-.031v.531c-.824.035-1.328.084-1.531.156-.2.074-.313.256-.313.53v4.625c0 .978-.53 1.747-1.562 2.282-1.032.537-2.442.781-4.282.781-1.103 0-2.083-.074-2.906-.219-.823-.146-1.488-.365-2.031-.656-.015-.008-.05-.02-.063-.031-.014-.007-.018.009-.03 0-.42-.24-.698-.513-.845-.812-.146-.3-.218-.738-.218-1.312v-4.688c0-.268-.11-.426-.313-.5-.203-.072-.707-.13-1.531-.156v-.563zm113.156 0c.253.018.493.054.688.063.195.008.367 0 .562 0 .267.007.56 0 .875 0h2.406c.315 0 .61.007.875 0 .194 0 .397.008.594 0 .195-.01.406-.022.656-.031v.531c-.825.034-1.328.083-1.53.156-.203.072-.312.226-.312.5v6.405c0 .284.109.458.312.532.203.072.706.13 1.531.156v.531c-.25-.01-.461-.021-.656-.031-.196-.008-.399-.031-.594-.031-.265-.01-.56 0-.875 0h-2.406c-.315 0-.608-.01-.875 0-.194 0-.366.023-.562.031-.195.01-.436.021-.688.031v-.562c.825-.018 1.328-.053 1.531-.125.203-.074.313-.256.313-.532v-6.405c0-.268-.11-.428-.313-.5-.203-.073-.706-.13-1.53-.156l-.002-.563zm63 2.282c-.377-.527-.949-.968-1.687-1.344-.686-.361-1.465-.618-2.345-.781-.879-.162-1.926-.25-3.155-.25-2.358 0-4.307.395-5.813 1.156-1.507.765-2.25 1.912-2.25 3.437 0 1.423.677 2.508 2.032 3.282 1.353.774 3.265 1.156 5.75 1.156 2.498 0 4.482-.415 5.906-1.281 1.422-.863 2.125-2.066 2.125-3.594a3.01 3.01 0 0 0-.563-1.781zm-3.719 5c-.759.663-1.896.979-3.375.968v.032c-1.968 0-3.276-.425-3.968-1.282-.692-.856-1.032-1.813-1.032-2.843 0-.993.335-1.837 1.032-2.532.698-.692 1.947-1.03 3.718-1.03 1.803 0 3.03.382 3.72 1.155.69.776 1.03 1.658 1.03 2.625 0 1.277-.365 2.244-1.125 2.907zm-100.811-5.094c-.336-.503-.846-.938-1.5-1.281-.588-.326-1.271-.554-2.095-.688-.825-.131-1.927-.188-3.28-.188h-1.75l-3.469.031c-.556 0-1.104.008-1.656 0-.551-.01-1.098-.037-1.656-.063v.563c.824.026 1.328.083 1.531.156.202.072.312.232.312.5v6.405c.003.162-.029.321-.093.47-.051.1-.164.174-.344.25-.07.023-.129.063-.219.094-.09.03-.217.06-.344.094v.312c.112-.01.204-.026.282-.031.078-.004.166-.021.25-.031.154-.01.328 0 .531 0h1.437c.159 0 .301-.007.469 0h1l2.563.031c2.54 0 4.616-.455 6.187-1.375 1.571-.922 2.345-2.121 2.345-3.594a2.91 2.91 0 0 0-.501-1.655zm-2.97 3.531c-.21.47-.506.881-.937 1.25-.476.42-1.119.727-1.906.906-.792.181-1.839.28-3.125.28h-.344c-.111 0-.215-.021-.313-.031-.14-.009-.29.009-.438 0a4.886 4.886 0 0 1-.53-.062c0-.035.006-.06 0-.094-.008-.035 0-.082 0-.125 0-.034-.025-.06-.032-.095-.006-.033 0-.08 0-.125v-6.405c.015-.072.025-.146.032-.219.006-.075 0-.142 0-.22.166-.008.357-.023.531-.031.175-.009.35-.021.532-.03.18 0 .356.005.53 0 .174-.005.334-.031.5-.031 1.872 0 3.308.281 4.313.812 1.005.533 1.531 1.415 1.531 2.625a3.836 3.836 0 0 1-.344 1.595z"/>
</svg>
