<svg xmlns="http://www.w3.org/2000/svg" width="315.728" height="65.86" viewBox="0 0 315.7285 65.8599">
  <path fill="#fff" d="M33.766 16.723h13.25L29.97 64.573H16.916L0 16.724h13.828l9.776 35.31h.193l9.969-35.31zm54.412 38.525c0 2.83.267 4.716.803 5.66.537.943 1.169 1.543 1.898 1.8v1.866H77.5c-.343-1.114-.59-1.994-.74-2.637s-.289-1.651-.418-3.023c-1.415 1.5-3.258 3.033-5.53 4.598-2.273 1.565-5.51 2.348-9.712 2.348-1.758 0-3.494-.258-5.21-.772a12.768 12.768 0 0 1-4.598-2.476c-1.351-1.136-2.444-2.584-3.281-4.341-.836-1.758-1.254-3.88-1.254-6.368 0-2.315.343-4.362 1.03-6.142.685-1.78 1.639-3.302 2.862-4.567a13.878 13.878 0 0 1 4.34-3.023c1.673-.749 3.495-1.274 5.468-1.575l11.191-1.672c.985-.129 1.96-.45 2.926-.965.965-.515 1.447-1.457 1.447-2.83 0-2.659-.965-4.255-2.894-4.792-1.93-.535-3.688-.804-5.274-.804-3.13 0-5.145.761-6.046 2.284-.9 1.522-1.436 2.991-1.608 4.406H48.237c.343-3.688 1.19-6.625 2.54-8.812 1.35-2.187 3.002-3.87 4.953-5.049s4.105-1.95 6.464-2.316a46.688 46.688 0 0 1 7.139-.545c1.672 0 3.59.16 5.756.481 2.166.322 4.213.986 6.142 1.995 1.93 1.007 3.57 2.412 4.92 4.212 1.351 1.801 2.027 4.181 2.027 7.14v25.919zM76.022 47.4v-6.11c-.644.515-1.565.976-2.766 1.383-1.2.406-3.087.825-5.66 1.254-2.315.386-4.299 1.029-5.949 1.93-1.65.9-2.476 2.658-2.476 5.273 0 2.187.654 3.688 1.961 4.502 1.308.815 2.563 1.222 3.764 1.222 2.744 0 5.284-.846 7.62-2.54 2.337-1.693 3.505-3.999 3.505-6.914zm19.552 17.173V0h12.413v64.574H95.574zm36.017-60.78v12.929h7.719v9.003h-7.72V51.71c0 1.414.226 2.411.676 2.99.45.579 1.94.868 4.47.868a26.356 26.356 0 0 0 2.574-.129v9.519l-2.928.129c-.964.043-1.939.065-2.926.065h-1.607c-5.36 0-8.812-.955-10.356-2.863-1.543-1.908-2.315-4.405-2.315-7.493v-29.07h-6.367v-9.004h6.367V3.795h12.413zM166.129 15.5c2.315 0 4.77.342 7.364 1.028 2.595.686 4.985 1.994 7.171 3.923 2.188 1.93 4 4.61 5.436 8.04s2.154 7.889 2.154 13.377v2.188h-32.35c.17 1.8.814 4.201 1.928 7.203 1.114 3.001 4.16 4.502 9.134 4.502 1.757 0 3.408-.44 4.952-1.318s2.55-2.176 3.022-3.892h12.8c-.815 2.873-1.972 5.285-3.473 7.236s-3.195 3.527-5.082 4.727-3.88 2.059-5.981 2.573c-2.102.514-4.18.772-6.238.772-3.303 0-6.39-.44-9.263-1.318-2.873-.88-5.36-2.337-7.46-4.374-2.102-2.037-3.752-4.728-4.952-8.072-1.201-3.344-1.802-7.482-1.802-12.413 0-1.458.215-3.538.644-6.239s1.404-5.38 2.926-8.04c1.522-2.658 3.784-4.973 6.786-6.945 3-1.973 7.096-2.958 12.284-2.958zm-9.84 20.388h19.23c-.343-3.86-1.533-6.496-3.57-7.91-2.036-1.416-4.04-2.124-6.014-2.124-2.915 0-5.166.89-6.752 2.669-1.586 1.78-2.551 4.234-2.895 7.365zm57.885-9.777c-3.903 0-6.519 1.565-7.848 4.696-1.329 3.13-1.993 6.174-1.993 9.132 0 1.33.053 2.884.161 4.664.106 1.78.472 3.473 1.094 5.08.62 1.609 1.575 2.98 2.861 4.117s3.11 1.704 5.467 1.704c3.13 0 5.316-1.115 6.56-3.345 1.244-2.229 1.865-3.902 1.865-5.016h12.606c-.129 1.243-.514 2.916-1.157 5.016-.644 2.101-1.759 4.17-3.345 6.207-1.586 2.036-3.75 3.795-6.495 5.274s-6.26 2.219-10.549 2.219c-4.46 0-8.103-.772-10.933-2.316-2.83-1.542-5.05-3.483-6.657-5.82a21.775 21.775 0 0 1-3.344-7.718c-.622-2.81-.933-5.477-.933-8.008 0-3.858.44-7.406 1.319-10.644.878-3.237 2.23-6.035 4.051-8.393 1.824-2.359 4.16-4.191 7.011-5.5 2.85-1.307 6.272-1.96 10.259-1.96 1.843 0 3.923.257 6.238.772 2.316.514 4.502 1.446 6.56 2.796 2.058 1.352 3.839 3.217 5.339 5.597 1.5 2.38 2.401 5.434 2.7 9.165h-12.605c-.258-1.544-.922-3.217-1.994-5.017-1.072-1.8-2.937-2.702-5.596-2.702h-.642zM266.785 15.5c2.27 0 4.416.332 6.43.996 2.017.665 3.752 1.672 5.21 3.023 1.458 1.35 2.616 3.023 3.473 5.017.859 1.994 1.286 4.32 1.286 6.978v33.059h-12.412V35.567c0-1.758-.364-3.774-1.093-6.047-.729-2.271-3.066-3.408-7.01-3.408-2.744 0-5.049.933-6.915 2.799-1.865 1.864-2.798 4.62-2.798 8.264v27.399h-12.413V0h12.413v22.96h.128c.815-1.971 2.455-3.708 4.92-5.21 2.466-1.5 5.393-2.25 8.781-2.25zm24.118 40.132h24.825v8.94h-24.825v-8.94z"/>
</svg>
