<svg xmlns="http://www.w3.org/2000/svg" width="84" height="60" viewBox="0 0 84 60">
	<defs>
		<filter id="shadow" filterRes="252 180">
			<feOffset in="SourceAlpha" dy="1" />
			<feGaussianBlur stdDeviation="3" />
			<feComponentTransfer>
				<feFuncA type="linear" slope="0.6"/>
			</feComponentTransfer>
			<feBlend in="SourceGraphic" mode="normal" />
		</filter>
	</defs>
	<g fill="#fff" filter="url(#shadow)" transform="translate(7,7)">
		<path d="M31.887 27.611l12.302 3.719c-.827 3.45-2.128 6.332-3.904 8.645-1.777 2.314-3.982 4.06-6.616 5.238-2.634 1.177-5.986 1.766-10.057 1.766-4.937 0-8.97-.717-12.1-2.152-3.13-1.435-5.831-3.958-8.103-7.571C1.136 33.642 0 29.017 0 23.381c0-7.515 1.999-13.29 5.996-17.326C9.993 2.019 15.648 0 22.962 0c5.723 0 10.221 1.158 13.494 3.471 3.275 2.314 5.707 5.868 7.298 10.66L31.36 16.888c-.434-1.383-.889-2.396-1.363-3.037a8.086 8.086 0 0 0-2.882-2.479c-1.136-.578-2.406-.868-3.811-.868-3.182 0-5.62 1.28-7.314 3.838-1.28 1.899-1.92 4.88-1.92 8.944 0 5.035.764 8.486 2.292 10.354 1.528 1.867 3.678 2.799 6.446 2.799 2.685 0 4.714-.754 6.089-2.262 1.374-1.504 2.37-3.695 2.99-6.566zM70 21.196v-5.104h-2.562L68.76 9.47h-5.243l-1.328 6.621H58.13l1.336-6.621h-5.261l-1.327 6.621h-5.534v5.104h4.51l-.942 4.698h-3.568v5.104h2.544l-1.305 6.51h5.225l1.314-6.51H59.2l-1.305 6.51h5.262l1.301-6.51H70v-5.104h-4.522l.939-4.698H70zm-9.775 4.697h-4.072l.948-4.698h4.065l-.941 4.698z"/>
	</g>
</svg>
