<svg xmlns="http://www.w3.org/2000/svg" width="99" height="91" viewBox="0 0 99 91">
  <defs>
    <filter id="shadow" filterRes="297 273">
      <feOffset in="SourceAlpha" dy="1" />
      <feGaussianBlur stdDeviation="3" />
      <feComponentTransfer>
        <feFuncA type="linear" slope="0.6"/>
      </feComponentTransfer>
      <feBlend in="SourceGraphic" mode="normal" />
    </filter>
  </defs>
  <g fill="#fff" filter="url(#shadow)" transform="translate(7,7)">
    <path fill="#FFF" d="M75.015 40.241c0-.135-.038-.231-.113-.294-.084-.068-.23-.104-.434-.104h-.292v.802h.352c.326 0 .487-.135.487-.404zm.455 1.673h-.401l-.256-.564c-.13-.283-.269-.425-.42-.425h-.216v.989h-.331v-2.353h.662c.294 0 .516.064.667.197a.562.562 0 0 1 .193.443.585.585 0 0 1-.158.412.797.797 0 0 1-.44.231v.01c.131.031.262.175.39.434l.31.626zm.733-1.153c0-.463-.158-.854-.473-1.164a1.59 1.59 0 0 0-1.157-.465 1.589 1.589 0 0 0-1.634 1.629c0 .469.161.861.479 1.174.315.312.701.466 1.154.466.452 0 .837-.156 1.155-.472.317-.311.476-.702.476-1.168zm.222-.011c0 .52-.179.956-.538 1.307-.358.354-.798.529-1.324.529-.529 0-.969-.173-1.319-.514-.35-.346-.523-.78-.523-1.308 0-.515.178-.949.532-1.304.355-.355.797-.532 1.326-.532.518 0 .953.169 1.305.507.361.347.541.784.541 1.315zM26.14 47.311H25v-6.526c0-.516.034-1.143.094-1.883h-.025c-.107.433-.205.747-.291.941l-3.314 7.468h-.555l-3.321-7.414c-.093-.208-.191-.54-.291-.996h-.024c.035.39.054 1.021.054 1.896v6.513h-1.099v-9.719h1.504l2.981 6.777c.225.51.37.899.441 1.164h.047c.194-.531.348-.93.465-1.192l3.046-6.749h1.427l.001 9.72zm3.507 0h-1.108v-6.94h1.108v6.94zm.192-9.428a.694.694 0 0 1-.215.516.705.705 0 0 1-.517.21.715.715 0 0 1-.512-.203.693.693 0 0 1-.21-.523.71.71 0 0 1 .722-.716c.203 0 .377.067.517.206a.683.683 0 0 1 .215.51zm6.734 9.107c-.532.327-1.167.488-1.901.488-.995 0-1.796-.33-2.408-.99-.594-.64-.894-1.467-.894-2.48 0-1.137.325-2.057.981-2.757.652-.701 1.529-1.05 2.632-1.05.603 0 1.138.118 1.606.353v1.14c-.518-.364-1.066-.543-1.654-.543-.707 0-1.282.247-1.728.739-.464.504-.7 1.178-.7 2.018 0 .808.215 1.446.642 1.918.428.469.998.705 1.717.705.606 0 1.175-.199 1.707-.597v1.056zm5.301-5.493c-.195-.151-.477-.224-.849-.224-.451 0-.831.202-1.138.609-.348.455-.522 1.085-.522 1.89v3.538h-1.111v-6.94h1.111v1.431h.027c.164-.506.415-.896.752-1.172a1.662 1.662 0 0 1 1.063-.379c.296 0 .516.032.667.095v1.152zm6.191 2.357c0-.889-.2-1.567-.602-2.033-.39-.447-.934-.671-1.634-.671-.69 0-1.244.227-1.658.679-.438.483-.657 1.166-.657 2.052 0 .831.208 1.482.629 1.948.418.468.98.702 1.687.702.73 0 1.29-.237 1.673-.71.374-.465.562-1.119.562-1.967m1.139-.04c0 1.106-.312 1.995-.935 2.66-.625.669-1.466 1.003-2.522 1.003-1.042 0-1.871-.334-2.479-1.003-.596-.644-.895-1.495-.895-2.553 0-1.207.338-2.138 1.017-2.799.627-.613 1.467-.922 2.519-.922 1.035 0 1.843.323 2.426.962.578.643.869 1.527.869 2.652m5.509 1.64c0 .568-.212 1.039-.638 1.414-.464.406-1.102.609-1.904.609-.657 0-1.233-.137-1.722-.418v-1.194c.544.442 1.145.665 1.804.665.879 0 1.32-.324 1.32-.97a.856.856 0 0 0-.292-.669c-.195-.178-.575-.39-1.139-.638-.581-.254-.995-.515-1.239-.787-.293-.321-.441-.739-.441-1.253 0-.576.23-1.056.685-1.438.457-.383 1.042-.575 1.763-.575.552 0 1.045.108 1.484.325v1.119a2.615 2.615 0 0 0-1.575-.495c-.368 0-.663.092-.883.271a.865.865 0 0 0-.334.699c0 .307.094.546.279.717.165.158.514.351 1.042.576.592.249 1.021.506 1.281.769.338.334.509.757.509 1.273m6.789-1.6c0-.889-.201-1.567-.603-2.033-.388-.447-.934-.671-1.633-.671-.69 0-1.245.227-1.661.679-.437.483-.654 1.166-.654 2.052 0 .831.208 1.482.625 1.948.423.468.986.702 1.691.702.731 0 1.29-.237 1.672-.71.375-.465.563-1.119.563-1.967m1.142-.04c0 1.106-.315 1.995-.938 2.66-.623.669-1.463 1.003-2.52 1.003-1.043 0-1.872-.334-2.48-1.003-.595-.644-.895-1.495-.895-2.553 0-1.207.341-2.138 1.016-2.799.627-.613 1.468-.922 2.521-.922 1.035 0 1.842.323 2.423.962.578.643.873 1.527.873 2.652m4.894-5.801a1.487 1.487 0 0 0-.738-.183c-.778 0-1.164.49-1.164 1.471v1.07h1.626v.941h-1.626v5.999h-1.112v-5.999h-1.18v-.942h1.18v-1.125c0-.764.234-1.363.71-1.795.408-.375.906-.562 1.499-.562.344 0 .611.041.805.121v1.004zm4.385 9.228c-.262.15-.612.225-1.044.225-1.211 0-1.816-.683-1.816-2.048v-4.105h-1.19v-.943h1.19v-1.693c.355-.112.724-.234 1.113-.36v2.053h1.748v.942h-1.748v3.916c0 .465.076.799.235.991.161.2.423.297.793.297.276 0 .516-.074.719-.224v.949zM11.872 74.396c0 .544-.194 1.014-.586 1.412a1.928 1.928 0 0 1-1.422.596 1.85 1.85 0 0 1-1.386-.596 1.976 1.976 0 0 1-.568-1.412c0-.56.189-1.031.568-1.422a1.854 1.854 0 0 1 1.386-.586 1.92 1.92 0 0 1 1.422.594c.392.398.586.87.586 1.414m24.872 1.599h-3.623L19.97 55.686a9.36 9.36 0 0 1-.797-1.6h-.108c.094.544.141 1.711.141 3.5v18.41H16.22V50.514h3.876l12.758 19.99c.508.793.855 1.361 1.031 1.704h.071c-.119-.733-.18-1.983-.18-3.747V50.514h2.968v25.481zm19.147 0H42.386V50.514h12.918v2.7H45.37v8.476h9.206v2.701H45.37v8.902h10.521v2.702zm20.484-22.78h-7.34v22.78H66.05v-22.78h-7.354v-2.702h17.679v2.702z"/>
    <linearGradient id="a" gradientUnits="userSpaceOnUse" x1="1986.823" y1="-6.708" x2="1986.823" y2="-6.746" gradientTransform="matrix(443.8769 0 0 825.1953 -881852.875 5566.08)">
      <stop offset="0" stop-color="#fff"/>
      <stop offset=".5" stop-color="#fff"/>
      <stop offset="1" stop-color="#fff" stop-opacity=".42"/>
    </linearGradient>
    <path fill="url(#a)" d="M57.244 27.252a30.992 30.992 0 0 0 2.114-1.853C56.431 16.629 55.383.687 46.899.687c-.607 0-1.219.057-1.83.17 7.728 1.922 8.718 18.736 12.175 26.395"/>
    <linearGradient id="b" gradientUnits="userSpaceOnUse" x1="1980.198" y1="-10.449" x2="1980.23" y2="-10.449" gradientTransform="matrix(189.6387 0 0 301.9629 -375492.688 3164.392)">
      <stop offset="0" stop-color="#fff" stop-opacity=".698"/>
      <stop offset="1" stop-color="#fff"/>
    </linearGradient>
    <path fill="url(#b)" d="M32.335 6.292c-.832 1.881-1.681 4.353-2.708 7.58 2.043-2.878 4.08-5.359 6.104-7.368a22.292 22.292 0 0 0-.901-2.353 30.61 30.61 0 0 0-2.495 2.141"/>
    <linearGradient id="c" gradientUnits="userSpaceOnUse" x1="1990.887" y1="-6.439" x2="1990.919" y2="-6.439" gradientTransform="matrix(703.3398 0 0 968.3691 -1400261.375 6252.204)">
      <stop offset="0" stop-color="#fff" stop-opacity=".247"/>
      <stop offset="1" stop-color="#fff"/>
    </linearGradient>
    <path fill="url(#c)" d="M30.607.68a7.251 7.251 0 0 0-.691-.036c-7.321 0-17.407 13.583-21.95 31.173h.875a255.865 255.865 0 0 0 3.955-7.349c3.182-12.459 9.659-20.97 15.42-23.208 1.726-.67 2.391-.58 2.391-.58z"/>
    <linearGradient id="d" gradientUnits="userSpaceOnUse" x1="1988.856" y1="-8.36" x2="1988.856" y2="-8.414" gradientTransform="matrix(445.3516 0 0 557.8906 -885717.813 4693.767)">
      <stop offset="0" stop-color="#fff"/>
      <stop offset="1" stop-color="#fff" stop-opacity=".549"/>
    </linearGradient>
    <path fill="url(#d)" d="M15.291 31.826c6.754-.208 9.844-3.571 11.377-8.478 1.165-3.719 2.121-6.853 2.959-9.482-2.83 3.983-5.672 8.731-8.53 14.05-1.378 2.563-3.474 3.634-5.271 3.864-.001 0-.159.019-.535.046z"/>
    <path fill="#FFF" d="M12.795 24.495a256.051 256.051 0 0 1-3.955 7.349l2.554.004 2.806-.01h1.123c.179 0 .503-.055.503-.055 1.797-.229 3.893-1.298 5.271-3.864 2.858-5.317 5.702-10.066 8.529-14.05 1.029-3.229 1.877-5.699 2.71-7.58v.003a30.427 30.427 0 0 1 2.494-2.141h.001c.386.736.9 2.353.9 2.353 2.881 8.811 3.973 24.528 12.397 24.528l13.408.001 2.471-.01a2.827 2.827 0 0 1-.981-.172 7.043 7.043 0 0 0 2.212-.826c5.73-3.202 8.623-13.958 17.617-30.024h-2.512L80.348 0h-3.993c-.215.01-.425.018-.632.031-.098.21-.198.419-.295.63l.005.007c-3.856 1.211-5.936 4.066-7.071 7.689l-3.229 10.301c-1.913 2.628-3.839 4.887-5.767 6.729l-.006.01a30.753 30.753 0 0 1-2.114 1.853l-.003.001C53.786 19.593 52.797 2.778 45.07.857l-.001.001V.857a9.887 9.887 0 0 1 1.83-.171L43.563.674H30.487c-.786.012-2.271.586-2.271.586-5.757 2.254-12.239 10.776-15.421 23.235"/>
    <linearGradient id="e" gradientUnits="userSpaceOnUse" x1="1987.488" y1="-6.486" x2="1987.477" y2="-6.448" gradientTransform="matrix(588.5743 0 0 940.6543 -1169706.5 6098.454)">
      <stop offset="0" stop-color="#fff" stop-opacity=".329"/>
      <stop offset=".962" stop-color="#fff"/>
      <stop offset="1" stop-color="#fff"/>
    </linearGradient>
    <path fill="url(#e)" d="M63.029 30.85c.314.116.646.174.981.172 6.5 0 13.055-11.649 23.899-31.022l-5.05.003c-2.79 4.914-6.327 12.215-9.581 18.926-2.819 5.817-5.817 11.098-10.249 11.921z"/>
    <linearGradient id="f" gradientUnits="userSpaceOnUse" x1="1986.833" y1="-6.811" x2="1986.833" y2="-6.772" gradientTransform="matrix(508.2521 0 0 787.4512 -1009744.813 5365.204)">
      <stop offset="0" stop-color="#fff"/>
      <stop offset="1" stop-color="#fff" stop-opacity="0"/>
    </linearGradient>
    <path fill="url(#f)" d="M65.132 18.665c.906-2.794 2.062-6.223 3.263-10.303 1.16-3.708 3.181-6.48 7.037-7.689.102-.208.198-.421.297-.63-6.286.377-9.223 3.574-10.702 8.309-2.585 8.267-4.151 13.625-5.66 17.041 1.926-1.843 3.852-4.103 5.765-6.728"/>
    <path fill="#FFF" d="M74.354 28.83h-.712v2.214h-.291V28.83h-.715v-.263h1.718v.263zm2.916 2.213h-.29v-1.664c0-.131.01-.292.024-.481-.03.113-.055.192-.077.242l-.844 1.902h-.141l-.846-1.888a1.377 1.377 0 0 1-.077-.256h-.01c.01.1.013.261.013.485v1.66h-.278v-2.478h.383l.76 1.729c.058.13.094.23.112.297h.011c.038-.103.078-.205.12-.305l.775-1.721h.365v2.478z"/>
  </g>
</svg>
