<svg xmlns="http://www.w3.org/2000/svg" width="86" height="86" viewBox="0 0 86 86">
  <defs>
    <filter id="shadow" filterRes="344 344">
      <feOffset in="SourceAlpha" dy="1" />
      <feGaussianBlur stdDeviation="3" />
      <feComponentTransfer>
        <feFuncA type="linear" slope="0.6"/>
      </feComponentTransfer>
      <feBlend in="SourceGraphic" mode="normal" />
    </filter>
  </defs>
  <g fill="#fff" filter="url(#shadow)" transform="translate(7,7)">
    <path d="M0 0v70h70V0H0zm38.121 54.597c0 6.811-3.993 9.911-9.822 9.911-5.267 0-8.316-2.726-9.868-6.008l5.354-3.242c1.033 1.833 1.973 3.383 4.233 3.383 2.161 0 3.524-.845 3.524-4.133V32.141h6.578v22.456h.001zm15.543 9.923c-6.109 0-10.056-2.911-11.987-6.727l5.346-3.105c1.41 2.302 3.244 3.995 6.489 3.995 2.726 0 4.467-1.362 4.467-3.245 0-2.255-1.789-3.054-4.789-4.367l-1.645-.706c-4.747-2.022-7.9-4.555-7.9-9.911 0-4.934 3.759-8.689 9.633-8.689 4.182 0 7.189 1.455 9.355 5.267l-5.122 3.289c-1.128-2.022-2.344-2.819-4.233-2.819-1.927 0-3.147 1.222-3.147 2.819 0 1.974 1.222 2.772 4.044 3.995l1.645.705c5.589 2.396 8.744 4.84 8.744 10.333-.001 5.921-4.653 9.166-10.9 9.166z"/>
  </g>
</svg>
