<svg xmlns="http://www.w3.org/2000/svg" width="121" height="79" viewBox="0 0 121 79">
  <defs>
    <filter id="shadow" filterRes="363 237">
      <feOffset in="SourceAlpha" dy="1" />
      <feGaussianBlur stdDeviation="3" />
      <feComponentTransfer>
        <feFuncA type="linear" slope="0.6"/>
      </feComponentTransfer>
      <feBlend in="SourceGraphic" mode="normal" />
    </filter>
  </defs>
  <g fill="#fff" filter="url(#shadow)" transform="translate(7,7)">
    <path d="M30.379 0c1.486 1.699 1.954 4.077 1.529 6.285-.467 2.463-1.826 4.586-3.397 6.455-1.274 1.486-2.76 2.803-4.289 4.034-1.784 1.443-3.524 2.972-4.629 5.011-.934 1.656-1.146 3.651-.509 5.436 1.062 3.058 3.524 5.308 4.841 8.195a78.676 78.676 0 0 1-4.289-4.076c-1.402-1.529-2.76-3.101-3.652-5.011-.594-1.316-.849-2.888-.424-4.289.467-1.444 1.486-2.59 2.505-3.652 2.845-2.845 6.37-4.968 9.172-7.856 1.529-1.571 2.803-3.482 3.27-5.69.382-1.615.212-3.271-.128-4.842z"/>
    <path d="M28.043 17.962c3.057-2.251 6.625-3.694 10.276-4.714-2.888 1.826-5.86 3.482-8.323 5.86-.892.85-1.741 1.869-2.123 3.058-.297.892-.17 1.911.17 2.761.679 1.528 1.783 2.76 2.633 4.118a4.414 4.414 0 0 1 .297 3.992c-.849 1.868-2.463 3.228-4.162 4.331-.212.128-.425.383-.679.383 1.146-1.02 2.038-2.464 1.996-4.034-.042-1.146-.679-2.208-1.444-3.015-1.571-1.869-2.887-4.204-2.59-6.71.213-2.59 1.996-4.586 3.949-6.03z"/>
    <path d="M38.872 36.18c.68-.807 1.699-1.02 2.675-1.146 1.656-.213 3.44.212 4.714 1.358 1.062.935 1.614 2.378 1.401 3.779-.254 1.614-1.316 2.973-2.548 3.992-2.208 1.783-4.968 2.802-7.686 3.524.17-.17.34-.34.552-.468 2.081-1.104 4.162-2.42 5.69-4.246.934-1.146 1.656-2.633 1.359-4.119-.297-1.741-1.996-3.015-3.737-3.1-.849-.041-1.613.256-2.42.426zM7.193 37.623c2.888-1.231 6.072-2.038 9.215-1.996-1.826.553-3.737.978-5.478 1.826-.425.213-.892.425-1.104.85-.127.34.212.552.467.68 1.062.425 2.25.51 3.397.595 4.034.255 8.068.127 12.103-.128 3.992-.255 7.898-.807 11.848-1.401-.85.425-1.741.807-2.548 1.359-.424.297-.934.382-1.359.467-4.841 1.062-9.767 1.401-14.692 1.486-1.911 0-3.78 0-5.69-.128-2.123-.127-4.247-.297-6.285-.849-.595-.17-1.231-.383-1.698-.807-.255-.17-.255-.553-.043-.807.508-.594 1.231-.849 1.867-1.147zm3.737 6.71c.807-.638 1.784-1.02 2.76-1.359-.297.383-.764.722-.807 1.274 0 .34.255.595.51.722.509.255 1.104.383 1.698.425 3.015.298 6.073.51 9.13.298 2.803-.128 5.563-.596 8.323-1.104.764.722 1.656 1.188 2.59 1.613-3.312.977-6.752 1.529-10.191 1.826-3.228.212-6.54.212-9.767-.297-1.274-.255-2.59-.51-3.737-1.104-.467-.255-1.019-.595-1.147-1.146-.084-.469.298-.893.638-1.148zm1.826 6.879c.722-.595 1.614-.892 2.505-1.146-.297.255-.807.595-.552 1.062.425.552 1.231.595 1.826.765 2.675.34 5.351.552 8.026.34 2.038-.128 3.992-.51 5.987-.85 1.146.68 2.335 1.231 3.524 1.741-1.868.849-3.864 1.358-5.86 1.74-3.354.595-6.836.68-10.234.128-1.486-.255-3.015-.595-4.374-1.358-.509-.298-1.062-.638-1.273-1.232-.212-.425.043-.893.425-1.19z"/>
    <path d="M4.009 55.671c1.443-.51 2.93-.892 4.458-.935.595 0 1.231 0 1.784.34-1.826.128-3.652.552-5.308 1.401-.382.212-.764.425-.934.85 0 .509.552.637.934.807 2.293.849 4.713 1.104 7.134 1.358 7.134.595 14.311.425 21.487-.212 2.675-.298 5.393-.595 8.026-1.359.849-.297 1.783-.552 2.335-1.316.339-.425.127-.977-.212-1.358.552.297 1.274.679 1.188 1.401-.212.764-.976 1.146-1.613 1.528-2.038 1.02-4.247 1.528-6.455 1.996-6.412 1.273-12.994 1.528-19.491 1.358-4.926-.17-9.852-.637-14.693-1.486-.849-.212-1.826-.382-2.463-1.062-.425-.467-.042-1.146.34-1.486.977-.849 2.251-1.358 3.483-1.825z"/>
    <path d="M43.288 61.063c1.571-.552 3.312-1.146 4.459-2.378-.212 1.358-1.401 2.336-2.548 2.93-2.251 1.146-4.756 1.698-7.219 2.124-5.266.849-10.616 1.019-15.967.934-3.652-.127-7.304-.255-10.871-1.019-.849-.255-1.783-.383-2.505-.893 3.185.553 6.412.765 9.64.893 5.308.17 10.659-.043 15.924-.723 3.057-.423 6.115-.933 9.087-1.868zm13.716-23.695V20.043c1.189.042 2.378 0 3.609.042v19.407c-.042 1.826-.085 3.694-.935 5.351-.977 1.74-2.675 2.93-4.543 3.651-.595-.637-1.104-1.316-1.699-1.953 1.486-.849 2.973-2.081 3.312-3.864.299-1.784.214-3.525.256-5.309zm6.922-10.361c2.378-1.019 5.011-1.528 7.601-1.273 1.359.17 2.718.637 3.609 1.741.722.934.977 2.08.977 3.228v11.805h-2.675l-.255-1.783c-1.019.807-2.081 1.528-3.312 1.868-1.444.382-2.973.34-4.374-.213-1.062-.425-1.911-1.4-2.208-2.548-.424-1.656-.212-3.566.935-4.883 1.019-1.231 2.59-1.826 4.161-2.081 1.444-.297 2.888-.297 4.332-.297-.042-1.104.169-2.336-.467-3.312-.509-.765-1.443-1.062-2.293-1.104-1.869-.17-3.737.298-5.52.935-.171-.682-.341-1.403-.511-2.083M68.3 35.16c-.765.255-1.487.808-1.699 1.614-.255.892-.17 1.953.425 2.718.552.722 1.571.935 2.463.807 1.232-.127 2.293-.85 3.27-1.613v-3.95c-1.53-.001-3.058-.086-4.459.424zm26.582-8.153c2.378-1.019 5.053-1.57 7.644-1.273 1.317.17 2.633.637 3.482 1.656.807.977 1.062 2.251 1.019 3.482 0 3.906 0 7.771-.043 11.635-.892-.042-1.741 0-2.632-.042a165.56 165.56 0 0 0-.255-1.741c-1.231 1.062-2.718 1.91-4.374 2.038-1.528.127-3.27-.043-4.458-1.146-1.232-1.147-1.444-3.058-1.147-4.629.297-1.486 1.401-2.676 2.76-3.354 2.081-1.02 4.502-1.062 6.795-1.062-.042-1.062.17-2.208-.382-3.185-.425-.764-1.316-1.146-2.166-1.231-1.953-.212-3.906.298-5.732.935-.171-.682-.341-1.403-.511-2.083m4.289 8.153c-.722.255-1.444.808-1.656 1.571-.255.892-.17 1.954.382 2.718.594.765 1.613.935 2.505.807 1.231-.17 2.335-.849 3.228-1.656-.042-1.273 0-2.59 0-3.906-1.486.041-3.015-.044-4.459.466zm-21.062-9.215h3.694c.722 2.336 1.444 4.629 2.166 6.965.425 1.443.934 2.845 1.231 4.289.169.637.297 1.316.509 1.953 1.529-4.289 2.675-8.705 3.27-13.206h3.609c-1.019 5.689-2.675 11.338-5.138 16.561h-4.204c-1.74-5.521-3.438-11.041-5.137-16.562zm29.64-.339h-.425v-.17h1.062v.17h-.425v1.273h-.169v-1.273h-.043zm1.996.637c0-.212-.042-.425-.042-.595-.042.17-.127.34-.17.552l-.255.68h-.127l-.212-.68c-.085-.212-.127-.382-.169-.552 0 .17 0 .425-.043.637l-.042.595h-.17l.085-1.443h.255l.255.679c.042.17.085.34.127.467.042-.127.085-.297.17-.467l.255-.679h.255L110 26.88h-.169l-.086-.637z"/>
  </g>
</svg>
