<svg xmlns="http://www.w3.org/2000/svg" width="121" height="102" viewBox="0 0 121 102">
    <defs>
        <filter id="shadow" filterRes="363 306">
            <feOffset in="SourceAlpha" dy="1" />
            <feGaussianBlur stdDeviation="3" />
            <feComponentTransfer>
                <feFuncA type="linear" slope="0.6"/>
            </feComponentTransfer>
            <feBlend in="SourceGraphic" mode="normal" />
        </filter>
    </defs>
    <g fill="#fff" filter="url(#shadow)" transform="translate(7,7)">
			<path d="M5.917 66.958c-2.782-.039-4.588.872-5.432 2.73-1.244 2.74-.135 4.811 3.822 7.121 2.223 1.298 3.208 2.417 3.208 3.641 0 2.527-3.058 3.424-6.211 1.825-.641-.325-1.19-.593-1.223-.593-.112.716-.062 2.434-.062 2.434s.965.402 2.417.692c3.607.718 6.882-.973 7.191-3.715.287-2.55-.649-3.905-4.168-6.021-2.356-1.417-3.395-2.446-3.262-3.666.366-3.355 4.508-2.883 6.792-1.619l.008-2.257s-1.27-.548-3.08-.572zm13.862.012c-.17.001-.34.007-.511.017-3.418.186-5.725 1.693-7.084 4.633-1.153 2.66-1.024 6.14.021 8.805 1.207 2.614 3.169 3.994 6.429 4.522.686.111 1.156.499 2.488 2.06l1.643 1.927h2.99l-1.989-2.001c-1.094-1.1-1.989-2.062-1.989-2.138 0-.076.419-.262.931-.416 1.681-.504 3.064-1.797 4.044-3.781.784-1.586.905-2.076 1.009-4.061.31-5.916-2.801-9.614-7.982-9.567zm30.575.02c-2.782-.039-4.592.872-5.437 2.73-1.244 2.74-.131 4.81 3.826 7.121 2.223 1.298 3.205 2.412 3.205 3.637 0 2.527-3.054 3.428-6.207 1.829-.641-.325-1.194-.593-1.228-.593-.112.716-.058 2.434-.058 2.434s.96.398 2.414.688c3.607.719 6.882-.973 7.191-3.715.288-2.551-.649-3.905-4.168-6.021-2.356-1.417-3.395-2.442-3.262-3.662.366-3.355 4.508-2.883 6.792-1.619l.008-2.257c.001 0-1.265-.546-3.076-.572zm-19.875.186v17.405h9.185v-2.059h-7.01V67.176h-2.175zm-10.86 1.643c3.633 0 5.703 2.222 5.963 6.404.217 3.47-.948 6.092-3.184 7.174-1.446.701-3.561.845-4.942.338-1.418-.521-2.796-1.998-3.427-3.669-.689-1.828-.589-5.205.198-6.721 1.26-2.427 2.94-3.526 5.392-3.526zm73.54 3.043a6.864 6.864 0 0 0-1.331.157c-2.897.76-4.533 3.531-4.423 6.388.002 2.397.467 3.581 1.619 4.831 2.359 1.945 4.503 2.091 7.397 1.059.499-.214 1.03-.454 1.03-.454l-.004-1.939-1.025.539c-2.335 1.013-4.097 1.015-5.506-.185-.904-.922-1.29-2.002-1.482-3.262h8.739v-1.668c-.002-3.381-2.042-5.513-5.014-5.466zm-31.918.029a6.834 6.834 0 0 0-1.327.157c-2.896.76-4.537 3.527-4.427 6.383.002 2.397.471 3.585 1.623 4.835 2.358 1.945 4.499 2.091 7.393 1.059.5-.214 1.029-.457 1.029-.457v-1.936l-1.029.54c-2.335 1.013-4.097 1.015-5.506-.185-.904-.922-1.29-2.007-1.483-3.266h8.744v-1.664c-.001-3.38-2.046-5.513-5.017-5.466zm44.656.091c-1.258 0-2.219.505-2.858 1.503l-.506.794-.004-1.025-.004-1.03h-2.175v12.331h2.175v-3.937c0-3.603.046-4.03.543-5.017.685-1.357 1.884-2.027 3.036-1.697l.77.222V71.98h-.977v.002zm-31.918.029c-1.259 0-2.215.505-2.854 1.503l-.51.795-.004-1.03-.004-1.025h-2.174v12.327h2.174v-3.938c0-3.602.046-4.029.543-5.016.685-1.357 1.884-2.027 3.036-1.697l.774.222V72.01h-.981v.001zm1.693.22a394.331 394.331 0 0 0 4.621 12.345c.689.007 1.382.005 2.071.004l2.435-6.104 2.475-6.241h-2.146s-.947 2.475-1.936 5.249l-1.796 4.68-1.726-4.712-1.754-5.221h-2.244zm17.359 1.497a3.01 3.01 0 0 1 1.833.626c1.1.845 1.285 2.924 1.285 2.924h-6.528s.329-2.114 1.524-2.949a3.283 3.283 0 0 1 1.886-.601zm-31.918.029a3.01 3.01 0 0 1 1.833.626c1.099.845 1.285 2.92 1.285 2.92h-6.524s.33-2.109 1.524-2.944a3.253 3.253 0 0 1 1.882-.602zM38 60.867c0-.091-.025-.155-.075-.196-.058-.047-.155-.07-.291-.07h-.196v.537h.236c.217 0 .326-.091.326-.271m.303 1.119h-.267l-.172-.378c-.086-.188-.18-.284-.281-.284h-.146v.662h-.221v-1.575h.444c.196 0 .344.045.446.133a.38.38 0 0 1 .128.296c0 .108-.035.2-.105.275a.537.537 0 0 1-.295.154v.007c.088.02.175.116.262.289l.207.421zm.49-.771c0-.312-.106-.57-.317-.779a1.058 1.058 0 0 0-.773-.312 1.05 1.05 0 0 0-.781.314 1.057 1.057 0 0 0-.312.776c0 .313.108.576.322.786.211.207.468.311.771.311.302 0 .559-.105.772-.315.213-.209.318-.469.318-.781m.149-.007c0 .347-.12.638-.359.874a1.206 1.206 0 0 1-.885.354c-.354 0-.649-.115-.882-.344a1.179 1.179 0 0 1-.351-.874c0-.346.119-.636.356-.874.237-.236.532-.355.886-.355.347 0 .637.113.872.34.243.232.363.526.363.879M6.924 65.307h-.72v-4.131c0-.326.02-.725.059-1.193h-.017c-.068.274-.13.473-.185.596l-2.097 4.728h-.352L1.51 60.614a3.342 3.342 0 0 1-.185-.631h-.017c.022.246.035.646.035 1.201v4.123H.647v-6.153h.954l1.887 4.291c.143.323.236.568.28.738h.029c.123-.337.221-.588.296-.755l1.926-4.274h.905m2.223 1.761v4.393h-.703v-4.393h.703zm.121-1.574a.444.444 0 0 1-.136.326.453.453 0 0 1-.329.133.454.454 0 0 1-.324-.129.433.433 0 0 1-.134-.33c0-.13.044-.238.134-.325a.448.448 0 0 1 .324-.131.454.454 0 0 1 .465.456m4.263 5.765c-.337.206-.739.309-1.205.309-.629 0-1.136-.208-1.523-.626-.377-.407-.566-.93-.566-1.57 0-.722.207-1.303.621-1.746.413-.443.969-.666 1.667-.666.383 0 .722.074 1.017.224v.72a1.794 1.794 0 0 0-1.047-.343c-.446 0-.81.155-1.093.467-.295.32-.442.747-.442 1.28 0 .511.134.916.405 1.213.27.298.632.446 1.088.446.383 0 .744-.125 1.081-.377m3.353-2.811c-.123-.095-.302-.141-.537-.141-.285 0-.525.128-.72.386-.221.288-.33.688-.33 1.197v2.239h-.705v-4.394h.705v.906h.017c.102-.32.262-.568.477-.743.2-.159.424-.24.673-.24.186 0 .327.021.42.06m3.92 2.224c0-.563-.127-.993-.381-1.288-.246-.283-.59-.425-1.035-.425-.438 0-.787.144-1.05.429-.278.306-.417.74-.417 1.3 0 .527.133.938.398 1.233.267.296.622.445 1.068.445.464 0 .816-.149 1.06-.45.238-.293.357-.706.357-1.244m.721-.026c0 .701-.199 1.263-.593 1.686-.395.422-.927.635-1.595.635-.662 0-1.184-.212-1.571-.635-.377-.41-.566-.949-.566-1.618 0-.765.215-1.354.645-1.772.397-.389.93-.583 1.595-.583.656 0 1.167.203 1.534.609.366.406.551.965.551 1.678m3.488 1.038c0 .36-.134.66-.404.896-.294.258-.696.387-1.205.387-.418 0-.78-.09-1.089-.267v-.755c.343.281.723.421 1.141.421.558 0 .836-.205.836-.614a.55.55 0 0 0-.185-.425c-.123-.112-.362-.245-.72-.402-.369-.161-.63-.326-.786-.498-.186-.203-.278-.468-.278-.794 0-.367.144-.67.434-.912.288-.242.66-.362 1.116-.362.348 0 .661.068.939.205v.708a1.661 1.661 0 0 0-.995-.313c-.235 0-.422.058-.562.172a.544.544 0 0 0-.211.442c0 .194.059.347.176.454.106.101.326.223.662.365.375.158.645.318.811.485.212.213.32.481.32.807m4.299-1.012c0-.563-.127-.993-.381-1.288-.246-.283-.591-.425-1.035-.425-.438 0-.787.144-1.051.429-.277.306-.415.74-.415 1.3 0 .527.132.938.398 1.233.267.296.622.445 1.068.445.464 0 .816-.149 1.06-.45.237-.293.356-.706.356-1.244m.722-.026c0 .701-.199 1.263-.593 1.686-.394.422-.927.635-1.596.635-.66 0-1.183-.212-1.57-.635-.377-.41-.566-.949-.566-1.618 0-.765.215-1.354.645-1.772.397-.389.928-.583 1.595-.583.655 0 1.166.203 1.533.609.367.406.552.965.552 1.678m3.1-3.673a.939.939 0 0 0-.468-.116c-.491 0-.737.311-.737.931v.678h1.029v.597h-1.029v3.795h-.705v-3.795h-.747v-.597h.747v-.711c0-.484.151-.862.45-1.138.259-.236.575-.354.949-.354.216 0 .387.025.51.077m2.778 6.476c-.166.095-.386.142-.661.142-.766 0-1.149-.431-1.149-1.294V61.51h-.755v-.597h.755v-1.072l.703-.227v1.299h1.107v.597h-1.107v2.48c0 .295.051.503.151.628.099.125.267.188.502.188a.744.744 0 0 0 .454-.143m73.143 8.078c0-.091-.025-.155-.075-.196-.058-.047-.155-.07-.291-.07h-.196v.537h.236c.217 0 .326-.09.326-.271m.304 1.119h-.267l-.172-.378c-.087-.188-.18-.284-.281-.284h-.145v.662h-.221v-1.574h.444c.196 0 .344.045.446.133a.38.38 0 0 1 .129.296c0 .108-.035.2-.105.276a.537.537 0 0 1-.295.154v.006c.088.02.175.116.262.29l.205.419zm.491-.771c0-.312-.106-.57-.317-.778a1.058 1.058 0 0 0-.773-.312 1.05 1.05 0 0 0-.781.314c-.208.21-.312.468-.312.776 0 .313.108.576.322.786.211.207.468.311.771.311.302 0 .559-.105.772-.315.211-.21.318-.47.318-.782m.148-.006c0 .347-.12.638-.359.874a1.21 1.21 0 0 1-.885.354c-.354 0-.649-.115-.882-.344a1.177 1.177 0 0 1-.351-.874c0-.345.119-.636.357-.874.238-.236.533-.354.886-.354.347 0 .637.113.873.339.24.232.361.525.361.879M74.6 28.337l-12.159 3.965-10.571 4.67-2.961.783a74.732 74.732 0 0 1-2.396 2.177 79.581 79.581 0 0 1-2.477 2.079c-.743.592-1.847 1.688-2.411 2.39-.84 1.045-1.497 2.16-1.779 3.018-.508 1.542-.261 3.104.719 4.546 1.252 1.841 3.743 3.713 6.641 4.986 1.478.649 3.972 1.487 5.842 1.959 3.117.787 9.14 1.642 12.457 1.769.673.026 1.569.023 1.61-.004.073-.048.589-1.025 1.188-2.25 2.039-4.165 3.514-8.069 4.308-11.403.48-2.019.855-4.711 1.098-7.904.068-.894.093-3.876.041-4.89-.085-1.649-.23-2.994-.463-4.313-.034-.193-.047-.363-.029-.379.034-.029.148-.066 1.642-.5l-.3-.699zm-2.779 1.631c.11 0 .404 2.818.48 4.605.017.38.013.623-.01.623-.072 0-1.557-.872-2.609-1.533-.919-.577-2.663-1.736-2.94-1.954-.087-.069-.078-.072.673-.331 1.279-.439 4.31-1.41 4.406-1.41zm-6.194 2.033c.078 0 .292.118.798.435 1.896 1.188 4.465 2.617 5.565 3.098.341.149.38.091-.406.625-1.675 1.138-3.758 2.256-6.315 3.393-.446.198-.823.359-.838.359-.016 0 .035-.226.109-.503.62-2.292.969-4.604.979-6.459.005-.917.005-.922.092-.944.006-.004.011-.004.016-.004zm-1.274.486c.055.055.015 2.111-.052 2.671a23.345 23.345 0 0 1-.844 4 7.635 7.635 0 0 1-.21.646c-.037.042-1.293-1.182-1.711-1.667-.714-.828-1.279-1.651-1.69-2.461-.209-.412-.542-1.226-.511-1.248.14-.103 4.983-1.975 5.018-1.941zm-6.006 2.367c.011.001.021.004.025.01.018.02.082.169.142.333.292.795.951 1.977 1.523 2.733.624.825 1.438 1.704 2.119 2.288l.452.389c.058.052.078.043-1.421.611a122.072 122.072 0 0 1-5.802 2.021l-1.556.504c-.083.031-.057-.02.185-.398 1.08-1.685 2.715-4.981 3.629-7.313.158-.405.31-.81.336-.9.04-.133.079-.178.204-.234a.38.38 0 0 1 .164-.044zm-1.841.76c.024.021-.441 1.005-.9 1.9-.889 1.734-1.87 3.441-3.171 5.525-.225.359-.431.688-.459.729-.046.067-.065.045-.208-.238a8.354 8.354 0 0 1-.708-2.129c-.133-.72-.111-1.965.05-2.738.119-.574.114-.562.384-.7 1.17-.6 4.974-2.382 5.012-2.349zm15.852.644v.391c-.002 2.05-.221 4.857-.539 6.905-.056.359-.104.656-.107.66-.004.003-.263-.072-.575-.169a23.623 23.623 0 0 1-4.225-1.808c-.894-.49-2.187-1.283-2.15-1.319.01-.01.391-.212.846-.448a53.678 53.678 0 0 0 5.027-2.948c.562-.376 1.403-.984 1.59-1.148l.133-.116zm-22.792 2.718c.038-.002.028.069-.031.408-.041.235-.087.68-.104.986-.074 1.344.145 2.335.812 3.692.186.377.331.691.323.698-.067.056-6.145 1.834-8.056 2.358-.566.155-1.062.292-1.102.304-.066.02-.072.005-.048-.15.209-1.349 1.238-3.118 2.675-4.604.956-.988 1.72-1.573 3.021-2.315.934-.533 2.383-1.333 2.49-1.373a.05.05 0 0 1 .02-.004zm14.336 2.567c.006-.007.231.113.5.269 1.963 1.135 4.702 2.2 7.038 2.734l.212.048-.291.162c-1.22.677-5.238 2.349-9.342 3.888-.6.225-1.184.445-1.298.49-.114.045-.208.077-.208.067s.169-.335.377-.723c1.152-2.154 2.302-4.771 2.892-6.588.061-.184.114-.34.12-.347zm-1.461.478c.006.006-.065.199-.16.427-.801 1.937-1.85 4.05-3.188 6.423-.34.604-.627 1.097-.638 1.096a14.656 14.656 0 0 1-.615-.365c-1.949-1.193-3.673-2.662-4.806-4.09l-.162-.202.84-.23c2.998-.821 5.54-1.7 8.067-2.789a9.36 9.36 0 0 1 .662-.27zm9.079 3.17c.004.001.006.003.006.008 0 .204-.464 2.095-.85 3.463a109.055 109.055 0 0 1-1.1 3.636c-.223.703-.414 1.276-.425 1.273l-.12-.023c-2.73-.495-5.176-1.184-7.467-2.104-.641-.257-1.566-.667-1.615-.715-.017-.017.537-.277 1.229-.579 4.184-1.826 8.52-3.905 10.001-4.796.178-.107.31-.169.341-.163zm-20.958.717c.022.022-1.148 1.697-2.783 3.985-.496.693-.99 1.387-1.482 2.083-.285.406-.562.817-.833 1.232l-.386.596-.412-.346a16.264 16.264 0 0 1-1.711-1.744c-.789-.983-1.324-2.019-1.535-2.969-.098-.438-.1-.662-.008-.69.134-.04 2.588-.618 4.891-1.152 1.278-.296 2.757-.644 3.286-.771s.969-.229.973-.224zm1.177.45l.296.331c1.324 1.475 2.67 2.576 4.313 3.525.29.167.511.313.492.325-.068.042-5.681 2.038-8.277 2.942-1.464.51-2.666.926-2.673.925s-.089-.055-.183-.121l-.169-.121.265-.383c.861-1.248 1.943-2.619 4.312-5.469l1.624-1.954zm7.335 5.242c.006-.008.417.138.914.323 1.197.447 2.136.739 3.407 1.058 1.562.391 3.817.782 5.154.894.205.018.31.041.277.062-.062.04-1.415.491-2.409.804-1.579.496-6.404 1.921-10.338 3.054-.73.21-1.354.387-1.387.394-.088.018-.396-.063-.396-.104 0-.02.221-.299.488-.619a55.667 55.667 0 0 0 3.733-5.019c.299-.457.55-.839.557-.847zm-1.625.046c.012.012-.64 1.055-1.786 2.861-.484.762-1.033 1.63-1.221 1.929s-.464.751-.612 1.01l-.269.469-.136-.036c-.33-.089-2.653-.911-3.268-1.154a21.496 21.496 0 0 1-2.138-.982c-.73-.395-1.657-.98-1.584-1.004.021-.006 1.278-.351 2.792-.763 4.028-1.098 6.256-1.729 7.717-2.185.272-.085.499-.15.505-.145zm11.44 2.683c.009-.002.013-.002.014 0 .038.095-1.453 4.225-1.999 5.534-.122.293-.167.364-.23.361-.154-.007-2.316-.309-3.625-.508-2.291-.348-6.127-1.018-7.096-1.238l-.225-.05 1.373-.31c2.943-.663 4.356-1.019 5.79-1.457a41.86 41.86 0 0 0 5.408-2.085c.285-.132.529-.234.59-.247zM62.069 0c-.204-.023-3.467 1.152-5.563 2.004-2.841 1.154-5.047 2.26-6.408 3.215-.506.355-1.143.995-1.236 1.24a.904.904 0 0 0-.052.31l1.234 1.166 2.929.935 6.977 1.246 7.975 1.371.081-.685-.071-.011-1.05-.166-.213-.375c-1.084-1.913-2.282-4.279-2.977-5.881-.539-1.24-1.055-2.668-1.342-3.704-.172-.614-.189-.653-.284-.665zm-.154.474h.014c.006.008.043.264.081.569.157 1.284.444 2.53.895 3.871.339 1.011.344.951-.06.838-.938-.262-5.139-.983-8.179-1.403a21.573 21.573 0 0 1-.904-.135c-.039-.039 2.192-1.207 3.181-1.667 1.267-.59 4.721-2.028 4.972-2.073zM53.06 4.587l.356.121c1.951.664 6.842 1.599 9.546 1.823.305.025.562.053.569.06.008.007-.251.146-.575.308-1.304.653-2.74 1.449-3.733 2.071-.292.183-.559.33-.594.327a14.84 14.84 0 0 1-.429-.067l-.367-.06-.923-.897a424.657 424.657 0 0 0-3.375-3.24l-.475-.446zm-.362.288l1.292 1.613c.711.888 1.425 1.769 1.583 1.958s.281.35.273.355c-.036.028-1.872-.329-2.846-.552-.999-.229-1.412-.339-2.031-.537l-.504-.162.002-.125c.006-.62.787-1.534 2.113-2.469l.118-.081zm11.006 2.199c.039.003.08.082.194.333.313.687 1.289 2.547 1.525 2.908.078.118.201.126-1.094-.083-3.112-.503-4.119-.671-4.119-.69 0-.012.093-.073.208-.136a18.044 18.044 0 0 0 2.802-1.94l.442-.371c.014-.015.028-.023.042-.021z"/>
    <path d="M48.917 6.336s-.202.32-.012.796c.118.294.472.648.862 1.023 0 0 4.084 3.984 4.584 4.562 2.263 2.612 3.246 5.183 3.337 8.732.058 2.278-.381 4.28-1.448 6.607-1.913 4.171-5.942 8.771-12.165 13.886l.914-.302c.587-.44 1.384-.91 3.265-1.938 4.332-2.369 9.195-4.548 15.17-6.794 8.597-3.23 22.738-7.021 30.784-8.253l.838-.129-.129-.202c-.736-1.144-1.238-1.849-1.842-2.596-1.765-2.182-3.901-3.963-6.519-5.429-3.597-2.014-8.263-3.579-14.161-4.752-1.115-.222-3.557-.64-5.544-.95a531.933 531.933 0 0 1-9.923-1.621c-1.075-.187-2.68-.456-3.746-.687-.556-.12-1.611-.37-2.431-.652-.677-.266-1.63-.524-1.834-1.301zm2.367 2.298c.005-.005.159.042.346.106.345.117.799.254 1.329.402.371.104.778.212 1.211.323.553.142 1.01.263 1.016.27.061.068.989 3.03 1.306 4.167.121.434.212.795.204.804-.008.009-.111-.151-.227-.354-1.074-1.888-2.774-3.809-4.74-5.354a7.842 7.842 0 0 1-.445-.364zm4.525 1.25c.047-.003.251.031.494.084 1.565.347 4.361.886 6.159 1.188.3.05.546.104.546.121s-.112.087-.248.156a33.88 33.88 0 0 0-1.931 1.156c-1.019.683-1.936 1.413-2.604 2.077-.268.267-.493.484-.5.484s-.054-.156-.104-.346c-.333-1.279-1.024-3.168-1.642-4.498a4.414 4.414 0 0 1-.181-.419c.001-.002.004-.003.011-.003zm7.96 1.513c.052.017.151.326.327 1.021a15.27 15.27 0 0 1 .44 4.206c-.015.385-.039.742-.054.794l-.029.096-.475-.154c-.979-.313-2.579-.784-3.95-1.164-.779-.215-1.417-.408-1.417-.427 0-.057 1.136-1.193 1.625-1.625.933-.824 3.443-2.776 3.533-2.747zm.632.091c.028-.026 3.804.627 5.519.956 1.279.245 3.129.632 3.24.679.054.022-.138.126-.752.403-2.43 1.096-4.229 2.074-6.019 3.271-.472.315-.863.573-.872.573-.008 0-.015-.263-.015-.584-.001-1.745-.35-3.506-.988-4.994a1.818 1.818 0 0 1-.113-.304zm9.761 1.93c.029.029-.095.773-.202 1.213-.334 1.369-1.219 3.4-2.312 5.309-.192.336-.365.617-.385.623-.02.006-.269-.125-.552-.29a29.334 29.334 0 0 0-3.605-1.764 10.943 10.943 0 0 1-.702-.304c-.061-.057 2.891-2.011 4.456-2.95 1.252-.749 3.267-1.872 3.302-1.837zm.698.11c.085 0 1.759.457 2.625.715 2.156.645 4.644 1.554 6.257 2.287l.671.304-.473.11c-3.948.907-7.333 1.954-10.592 3.277-.271.11-.506.2-.523.2s.07-.209.19-.465c.979-2.082 1.612-4.266 1.777-6.121.016-.17.046-.307.068-.307zm-16.641 3.825c.026-.027 1.301.272 1.996.467 1.044.293 3.268 1.037 3.269 1.094 0 .011-.245.225-.544.475a68.986 68.986 0 0 0-3.75 3.398c-.412.398-.761.721-.779.721-.017 0-.024-.058-.015-.129.209-1.544.165-3.526-.127-5.544-.038-.255-.06-.473-.05-.482zm26.833.025c.019.019-.591.973-.971 1.517-.554.794-1.358 1.836-3.188 4.138-.805 1.012-1.609 2.026-2.412 3.041-.365.463-.671.842-.681.842a4.07 4.07 0 0 1-.261-.368 19.148 19.148 0 0 0-3.717-4.111c-.272-.227-.58-.476-.683-.552s-.186-.147-.187-.158c-.001-.025 1.559-.694 2.75-1.179a93.318 93.318 0 0 1 7.027-2.504c1.118-.342 2.306-.683 2.323-.666zm.704.184c.034-.007.256.101.523.254 2.233 1.279 4.421 2.922 6.142 4.611.49.48 1.687 1.726 1.669 1.736a53.03 53.03 0 0 1-.919.073c-3.87.291-8.817 1.114-13.581 2.259-.323.078-.603.143-.621.143s.336-.355.787-.789c2.797-2.689 4.073-4.387 5.575-7.421.224-.452.413-.842.421-.865l.004-.001zm-20.453 2.097c.128.028 1.321.583 2.222 1.035.823.412 2.07 1.076 2.132 1.134.008.007-.432.237-.977.51a62.277 62.277 0 0 0-4.75 2.623c-.44.269-.81.49-.821.49-.039 0-.023-.033.223-.485.822-1.506 1.485-3.304 1.867-5.061.034-.157.075-.253.104-.246zm-1.202.215c.024.025-.285 1.162-.481 1.769a22.929 22.929 0 0 1-1.623 3.73c-.158.284-.321.564-.488.842l-.227.371-.515-.498c-.599-.58-1.087-.941-1.709-1.261-.245-.126-.444-.243-.444-.26-.001-.076 1.567-1.501 2.777-2.525.865-.731 2.688-2.19 2.71-2.168zm7.304 3.003l.448.291a35.822 35.822 0 0 1 3.173 2.338c.521.433 1.531 1.338 1.738 1.558l.112.117-.744.208c-4.209 1.167-7.461 2.208-11.255 3.602-.421.155-.785.283-.81.283-.052 0-.104.048.842-.823 2.427-2.233 4.571-4.694 6.173-7.088l.323-.486zm-1.92.481c.022.022-1.244 1.795-1.996 2.796-.9 1.198-2.503 3.2-3.606 4.504-.46.544-.855.997-.877 1.004-.023.008-.038-.125-.039-.336a7.693 7.693 0 0 0-.781-3.308c-.21-.425-.245-.528-.202-.567.173-.157 2.85-1.684 4.538-2.588 1.162-.622 2.941-1.527 2.963-1.505zm-11.607 2.844c.023 0 .238.108.477.241.586.325 1.113.682 1.577 1.069.018.015-.223.211-.535.437a93.295 93.295 0 0 0-2.965 2.241c-.81.645-.837.664-.746.525.607-.928.912-1.454 1.231-2.125.294-.625.55-1.266.767-1.921.084-.257.171-.467.194-.467zm3.092 2.427c.042-.005.102.073.35.444.524.783.925 1.827 1.029 2.677l.021.183-1.255.486c-2.254.875-4.329 1.737-5.73 2.379-.516.238-1.028.484-1.537.736-.452.226-.821.404-.821.394 0-.009.284-.223.631-.475 2.751-1.997 5.123-4.184 6.909-6.369.191-.234.365-.437.387-.45a.06.06 0 0 1 .016-.005zm-1.427.354c.037.037-1.015 1.226-1.723 1.948-1.772 1.809-3.529 3.227-5.706 4.607-.184.117-.368.233-.554.348-.06.035.019-.055.975-1.096a26.609 26.609 0 0 0 1.586-1.881c.344-.448.41-.51.915-.875 1.362-.981 4.471-3.087 4.507-3.051zm10.643 30.172h-.51v1.583h-.208v-1.583h-.511v-.187h1.229m2.085 1.771h-.208v-1.19c0-.093.006-.208.018-.342h-.006a1.04 1.04 0 0 1-.052.171l-.604 1.361h-.102l-.605-1.352a1.028 1.028 0 0 1-.052-.181h-.004c.006.07.009.185.009.345v1.187h-.201v-1.772h.275l.542 1.236c.042.093.069.163.081.212h.009c.036-.097.064-.17.085-.219l.555-1.23h.26"/>
	</g>
</svg>
