<svg xmlns="http://www.w3.org/2000/svg" width="133" height="87" viewBox="0 0 133 87">
  <defs>
    <filter id="shadow" filterRes="399 261">
      <feOffset in="SourceAlpha" dy="1" />
      <feGaussianBlur stdDeviation="3" />
      <feComponentTransfer>
        <feFuncA type="linear" slope="0.6"/>
      </feComponentTransfer>
      <feBlend in="SourceGraphic" mode="normal" />
    </filter>
  </defs>
  <g fill="#fff" filter="url(#shadow)" transform="translate(7,7)">
    <path d="M59.312 73.494c-.399 0-.791-.105-1.137-.305l-3.618-2.142c-.54-.302-.276-.409-.098-.471.721-.25.867-.309 1.636-.744.08-.045.187-.028.27.021l2.779 1.65a.357.357 0 0 0 .336 0l10.837-6.255a.342.342 0 0 0 .165-.294V52.449a.35.35 0 0 0-.168-.299L59.48 45.9a.337.337 0 0 0-.334 0l-10.83 6.252a.35.35 0 0 0-.172.297v12.506c0 .12.066.233.17.29l2.969 1.715c1.61.806 2.597-.143 2.597-1.096V53.516c0-.176.141-.312.315-.312h1.374c.172 0 .314.138.314.312v12.348c0 2.15-1.171 3.383-3.209 3.383-.626 0-1.12 0-2.496-.679l-2.842-1.636a2.285 2.285 0 0 1-1.136-1.977V52.449c0-.812.435-1.57 1.136-1.975l10.837-6.263a2.375 2.375 0 0 1 2.278 0l10.836 6.263a2.286 2.286 0 0 1 1.138 1.975v12.507a2.296 2.296 0 0 1-1.138 1.977L60.451 73.19a2.285 2.285 0 0 1-1.139.304"/>
    <path d="M62.659 64.878c-4.742 0-5.736-2.177-5.736-4.003 0-.174.14-.312.313-.312h1.401c.157 0 .287.113.312.266.212 1.427.842 2.146 3.71 2.146 2.283 0 3.255-.517 3.255-1.728 0-.698-.275-1.217-3.823-1.564-2.965-.293-4.799-.948-4.799-3.32 0-2.187 1.843-3.49 4.934-3.49 3.472 0 5.189 1.205 5.407 3.79a.318.318 0 0 1-.083.241.319.319 0 0 1-.23.1h-1.406a.312.312 0 0 1-.304-.244c-.337-1.501-1.158-1.98-3.384-1.98-2.493 0-2.782.868-2.782 1.52 0 .788.342 1.017 3.707 1.462 3.33.44 4.912 1.064 4.912 3.405-.001 2.358-1.97 3.711-5.404 3.711m15.626-13.117c0 1.148-.94 2.088-2.088 2.088a2.094 2.094 0 0 1-2.089-2.088 2.088 2.088 0 1 1 4.177 0m-3.839-.005c0 .973.785 1.758 1.746 1.758.973 0 1.758-.801 1.758-1.758 0-.973-.796-1.746-1.758-1.746-.951 0-1.746.762-1.746 1.746m.966-1.166h.808c.276 0 .818 0 .818.619 0 .431-.276.52-.442.574.321.022.343.232.387.531.022.187.056.508.122.618h-.497c-.012-.11-.089-.707-.089-.74-.032-.133-.078-.198-.243-.198h-.409v.938h-.454V50.59zm.442 1.027h.365c.298 0 .354-.209.354-.331 0-.32-.221-.32-.343-.32h-.376v.651zM25.753 24.563a1.386 1.386 0 0 0-.694-1.206L13.57 16.746a1.343 1.343 0 0 0-.632-.184h-.119a1.366 1.366 0 0 0-.635.184L.695 23.357A1.392 1.392 0 0 0 0 24.563l.025 17.805c0 .247.128.478.346.6a.666.666 0 0 0 .689 0l6.828-3.91c.432-.257.695-.709.695-1.204v-8.318c0-.496.263-.955.693-1.202l2.907-1.674a1.38 1.38 0 0 1 1.386 0l2.907 1.674c.43.248.694.706.694 1.202v8.318c0 .494.266.95.695 1.204l6.827 3.91a.693.693 0 0 0 1.038-.6l.023-17.805zM81.036.088a.694.694 0 0 0-1.031.607v17.632a.485.485 0 0 1-.729.421l-2.877-1.658a1.388 1.388 0 0 0-1.387.001l-11.494 6.633c-.43.248-.694.706-.694 1.202v13.27c0 .496.265.954.694 1.202l11.493 6.638c.43.248.959.248 1.389 0l11.495-6.638c.429-.248.694-.706.694-1.202V5.117c0-.503-.272-.967-.712-1.212L81.036.088zM79.97 33.834a.345.345 0 0 1-.174.3l-3.946 2.275a.347.347 0 0 1-.347 0l-3.946-2.275a.347.347 0 0 1-.174-.3v-4.557c0-.124.066-.238.174-.301l3.946-2.279a.349.349 0 0 1 .348 0l3.946 2.279a.349.349 0 0 1 .174.301v4.557h-.001zm39.34-4.676a1.39 1.39 0 0 0 .69-1.2v-3.216c0-.494-.263-.952-.691-1.2l-11.42-6.631a1.39 1.39 0 0 0-1.391-.002l-11.49 6.634a1.388 1.388 0 0 0-.694 1.201V38.01c0 .499.268.959.701 1.206l11.418 6.506c.421.24.938.243 1.361.007l6.907-3.838a.695.695 0 0 0 .691-1.204.696.696 0 0 0-.682-.004l-11.563-6.637a.697.697 0 0 1-.349-.603v-4.157c0-.248.132-.478.348-.601l3.598-2.075a.699.699 0 0 1 .694 0l3.6 2.075a.692.692 0 0 1 .347.601v3.271a.694.694 0 0 0 1.043.599l6.882-3.998z"/>
    <path d="M107.024 28.537a.266.266 0 0 1 .267 0l2.206 1.271a.268.268 0 0 1 .133.231v2.546a.266.266 0 0 1-.133.231l-2.206 1.272a.266.266 0 0 1-.267 0l-2.204-1.272a.266.266 0 0 1-.133-.231V30.04c0-.096.051-.184.133-.231l2.204-1.272zm-63.5-11.487l-11.398 6.579c-.426.246-.689.7-.689 1.192V37.99c0 .492.263.946.688 1.193l11.398 6.584c.427.246.952.246 1.378 0l11.401-6.584c.426-.246.688-.701.688-1.193V24.822c0-.492-.262-.947-.688-1.193L44.901 17.05a1.375 1.375 0 0 0-1.377 0"/>
  </g>
</svg>
