<svg xmlns="http://www.w3.org/2000/svg" width="104" height="61" viewBox="0 0 104 61">
  <defs>
    <filter id="shadow" filterRes="312 183">
      <feOffset in="SourceAlpha" dy="1" />
      <feGaussianBlur stdDeviation="3" />
      <feComponentTransfer>
        <feFuncA type="linear" slope="0.6"/>
      </feComponentTransfer>
      <feBlend in="SourceGraphic" mode="normal" />
    </filter>
  </defs>
  <g fill="#fff" filter="url(#shadow)" transform="translate(7,7)">
    <path d="M66.622 16.949h-3.541l-1.93 9.928h3.144c2.083 0 3.635-.392 4.655-1.177 1.02-.785 1.708-2.096 2.065-3.932.342-1.763.187-3.007-.467-3.732-.654-.725-1.963-1.087-3.926-1.087zm-40.335 0h-3.541l-1.929 9.928h3.143c2.083 0 3.635-.392 4.655-1.177 1.021-.785 1.708-2.096 2.065-3.932.342-1.763.186-3.007-.467-3.732-.654-.725-1.963-1.087-3.926-1.087z"/>
    <path d="M45 0C20.147 0 0 10.598 0 23.672s20.147 23.672 45 23.672 45-10.598 45-23.672S69.853 0 45 0zM32.777 27.941c-1.032.966-2.179 1.654-3.44 2.064-1.261.411-2.868.615-4.821.615H20.09l-1.226 6.307h-5.167l4.61-23.723h9.938c2.99 0 5.17.785 6.541 2.354 1.371 1.569 1.783 3.759 1.237 6.571a10.628 10.628 0 0 1-1.142 3.177 10.596 10.596 0 0 1-2.104 2.635zm15.084 2.68l2.04-10.496c.232-1.194.146-2.009-.256-2.443s-1.261-.652-2.572-.652h-4.098l-2.641 13.591h-5.127l4.611-23.723h5.127l-1.226 6.307h4.567c2.874 0 4.856.501 5.947 1.503 1.091 1.003 1.418 2.627.982 4.873L53.069 30.62h-5.208v.001zm28.495-8.491a10.655 10.655 0 0 1-1.142 3.177 10.604 10.604 0 0 1-2.104 2.634c-1.032.966-2.178 1.654-3.44 2.064-1.261.411-2.868.615-4.821.615h-4.426l-1.225 6.307h-5.167l4.61-23.723h9.938c2.99 0 5.17.785 6.541 2.354 1.371 1.569 1.783 3.76 1.236 6.572z"/>
  </g>
</svg>
