<svg xmlns="http://www.w3.org/2000/svg" width="173" height="53" viewBox="0 0 173 53">
  <defs>
    <filter id="shadow" filterRes="519 156">
      <feOffset in="SourceAlpha" dy="1" />
      <feGaussianBlur stdDeviation="3" />
      <feComponentTransfer>
        <feFuncA type="linear" slope="0.6"/>
      </feComponentTransfer>
      <feBlend in="SourceGraphic" mode="normal" />
    </filter>
  </defs>
  <g fill="#fff" filter="url(#shadow)" transform="translate(7,7)">
    <path d="M60.328 19.77c0-4.907-1.399-7.426-4.198-7.564a7.882 7.882 0 0 0-3.258.536c-.844.302-1.413.601-1.711.903v11.713c1.791 1.124 3.38 1.646 4.766 1.563 2.932-.194 4.401-2.575 4.401-7.151zm3.452.204c0 2.493-.584 4.562-1.761 6.208-1.31 1.862-3.126 2.821-5.449 2.874-1.75.056-3.554-.493-5.41-1.643v10.646l-3.002-1.071V13.359c.493-.604 1.126-1.123 1.895-1.563 1.787-1.042 3.958-1.577 6.514-1.603l.042.042c2.335-.029 4.136.93 5.4 2.874 1.179 1.784 1.771 4.07 1.771 6.865zm18.348 6.986c0 3.344-.335 5.659-1.005 6.947-.673 1.287-1.954 2.315-3.847 3.081-1.533.604-3.192.934-4.973.988l-.496-1.892c1.81-.246 3.084-.492 3.823-.739 1.455-.492 2.454-1.247 3.002-2.259.44-.825.657-2.398.657-4.727v-.782a15.406 15.406 0 0 1-6.454 1.396c-1.479 0-2.782-.463-3.906-1.396-1.261-1.015-1.892-2.302-1.892-3.862V11.22l3.002-1.028v12.576c0 1.344.434 2.378 1.3 3.104.868.726 1.991 1.074 3.367 1.047 1.376-.029 2.851-.562 4.418-1.603V10.645h3.002V26.96h.002zm11.719 1.932c-.328.027-.658.042-.988.042-1.698 0-3.021-.403-3.968-1.215-.942-.812-1.415-1.931-1.415-3.36V12.534h-2.057v-1.889h2.057V5.63l2.998-1.068v6.083h3.373v1.889h-3.373v11.742c0 1.127.303 1.925.906 2.392.52.385 1.344.604 2.467.66v1.564zm18.177-.246h-3.002V17.057c0-1.179-.276-2.194-.824-3.041-.634-.959-1.515-1.439-2.645-1.439-1.376 0-3.097.726-5.164 2.178v13.891h-3.002V.946L100.39 0v12.616c1.919-1.396 4.015-2.096 6.291-2.096 1.59 0 2.877.535 3.862 1.603.988 1.068 1.481 2.398 1.481 3.988v12.535zm15.957-9.349c0-1.885-.358-3.442-1.071-4.673-.848-1.501-2.164-2.293-3.944-2.375-3.292.19-4.935 2.548-4.935 7.069 0 2.072.343 3.804 1.032 5.192.88 1.771 2.2 2.645 3.961 2.615 3.305-.027 4.957-2.635 4.957-7.828zm3.288.02c0 2.684-.687 4.918-2.056 6.701-1.508 1.997-3.59 2.999-6.247 2.999-2.635 0-4.688-1.002-6.169-2.999-1.343-1.783-2.014-4.018-2.014-6.701 0-2.522.726-4.644 2.178-6.372 1.534-1.833 3.551-2.752 6.044-2.752s4.523.919 6.087 2.752c1.451 1.728 2.177 3.849 2.177 6.372zm17.211 9.329h-3.002V16.4c0-1.343-.404-2.391-1.212-3.146-.809-.752-1.886-1.117-3.229-1.087-1.425.026-2.782.493-4.069 1.396v15.083h-3.002V13.191c1.728-1.257 3.317-2.079 4.77-2.463 1.369-.357 2.578-.535 3.619-.535.713 0 1.383.068 2.014.207 1.179.272 2.138.778 2.877 1.521.825.821 1.235 1.806 1.235 2.959v13.766h-.001zM18.507 1.057c-1.545.007-3.02.139-4.317.369-3.824.675-4.518 2.089-4.518 4.697v3.443h9.035v1.148H6.281c-2.626 0-4.925 1.579-5.645 4.581-.83 3.441-.866 5.589 0 9.183.642 2.675 2.176 4.581 4.802 4.581h3.107v-4.128c0-2.982 2.58-5.613 5.645-5.613h9.025c2.512 0 4.518-2.068 4.518-4.591V6.122c0-2.448-2.066-4.288-4.518-4.697a28.26 28.26 0 0 0-4.708-.368zm-4.886 2.769c.933 0 1.695.775 1.695 1.727 0 .949-.762 1.717-1.695 1.717a1.705 1.705 0 0 1-1.695-1.717c-.001-.952.758-1.727 1.695-1.727z"/>
    <path d="M28.859 10.714v4.012c0 3.11-2.638 5.729-5.645 5.729h-9.025c-2.472 0-4.518 2.115-4.518 4.592v8.604c0 2.449 2.129 3.89 4.518 4.592 2.86.841 5.603.992 9.025 0 2.274-.659 4.518-1.984 4.518-4.592v-3.443h-9.025v-1.147H32.25c2.625 0 3.604-1.832 4.518-4.581.943-2.83.903-5.553 0-9.183-.649-2.614-1.889-4.581-4.518-4.581h-3.391zm-5.076 21.788c.936 0 1.695.767 1.695 1.716 0 .953-.759 1.728-1.695 1.728-.934 0-1.695-.774-1.695-1.728a1.707 1.707 0 0 1 1.695-1.716zM154.327 7.969h.526V4.668h1.247v-.394h-3.021v.394h1.247v3.301m2.24 0h.45V4.954l.976 3.015h.501l1.017-3.005v3.005h.49V4.275h-.648L158.24 7.44l-.948-3.166h-.726v3.695"/>
  </g>
</svg>
